<svg width="201" height="235" viewBox="0 0 201 235" fill="none" xmlns="http://www.w3.org/2000/svg">
<path d="M200.5 65.0404C200.5 62.8892 200.066 60.8279 199.274 58.9199L182.282 12.3146C179.606 4.97573 171.87 0 163.135 0H37.8554C29.1206 0 21.3851 4.97573 18.7083 12.3146L1.46774 59.5999C0.758064 61.5467 0.448386 63.559 0.514838 65.5513C0.508386 65.7193 0.5 65.8862 0.5 66.0554V217.242C0.5 227.051 9.50578 235 20.6135 235H180.375C191.485 235 200.489 227.051 200.489 217.242V66.0548C200.489 65.9512 200.482 65.8515 200.479 65.749C200.491 65.5132 200.5 65.2774 200.5 65.0404ZM52.5102 25.3662H148.479L152.77 37.1357H48.2198L52.5102 25.3662ZM157.963 196.847H43.027V95.3795H157.963V196.847Z" fill="#FD9D20"/>
<path d="M79.1636 171.653C79.4172 171.718 79.7559 171.786 80.0959 171.852L80.3759 171.905C85.5978 173.192 90.3242 174.306 94.0991 174.731V183.294C94.0991 186.151 96.7249 188.464 99.9571 188.464H101.369C104.598 188.464 107.224 186.15 107.224 183.294V174.542C116.961 172.736 126.205 165.61 126.205 155.571C126.205 143.182 113.736 139.331 103.718 136.233C94.2939 133.321 90.352 131.542 90.352 128.055C90.352 121.836 97.6326 120.194 101.484 120.194C108.874 120.194 110.389 122.838 110.389 126.812V127.122C110.389 129.979 113.013 132.294 116.245 132.294H117.754C120.987 132.294 123.611 129.981 123.612 127.128L123.621 118.155C123.621 116.703 122.933 115.32 121.725 114.339C118.05 111.364 113.287 109.71 107.224 109.319V103.434C107.224 100.577 104.598 98.2603 101.369 98.2603H99.9571C96.7249 98.2603 94.0991 100.577 94.0991 103.434V109.728C85.2585 111.882 76.8791 119.003 76.8791 128.467C76.8791 139.758 88.1533 143.167 98.1023 146.169C108.416 149.287 112.732 151.314 112.732 155.776C112.732 162.226 105.142 163.951 100.66 163.951C96.1307 163.951 90.5255 162.807 89.0107 160.928C88.3468 160.087 87.9004 158.461 87.6823 156.083C87.4339 153.397 84.8952 151.329 81.8443 151.329H80.6533C79.0882 151.329 77.594 151.877 76.4914 152.858C75.3927 153.837 74.7817 155.164 74.7953 156.542L74.8862 166.718C74.9043 169.019 76.6494 171.03 79.1636 171.653Z" fill="#EFEFEF"/>
</svg>
