<svg width="75" height="68" viewBox="0 0 75 68" fill="none" xmlns="http://www.w3.org/2000/svg">
<path d="M37.5 14.0001C42.8027 14.0054 47.8867 16.1142 51.6363 19.8638C55.3859 23.6134 57.4947 28.6974 57.5 34.0001C57.5 34.8841 57.1488 35.732 56.5237 36.3571C55.8986 36.9822 55.0507 37.3334 54.1667 37.3334C53.2826 37.3334 52.4348 36.9822 51.8096 36.3571C51.1845 35.732 50.8333 34.8841 50.8333 34.0001C50.8333 30.4639 49.4286 27.0725 46.9281 24.572C44.4276 22.0715 41.0362 20.6667 37.5 20.6667C33.9638 20.6667 30.5724 22.0715 28.0719 24.572C25.5714 27.0725 24.1667 30.4639 24.1667 34.0001C24.1667 34.8841 23.8155 35.732 23.1904 36.3571C22.5652 36.9822 21.7174 37.3334 20.8333 37.3334C19.9493 37.3334 19.1014 36.9822 18.4763 36.3571C17.8512 35.732 17.5 34.8841 17.5 34.0001C17.5053 28.6974 19.6141 23.6134 23.3637 19.8638C27.1133 16.1142 32.1973 14.0054 37.5 14.0001ZM40.8333 7.33341V4.00008C40.8333 3.11603 40.4821 2.26818 39.857 1.64306C39.2319 1.01794 38.3841 0.666748 37.5 0.666748C36.616 0.666748 35.7681 1.01794 35.143 1.64306C34.5179 2.26818 34.1667 3.11603 34.1667 4.00008V7.33341C34.1667 8.21747 34.5179 9.06532 35.143 9.69044C35.7681 10.3156 36.616 10.6667 37.5 10.6667C38.3841 10.6667 39.2319 10.3156 39.857 9.69044C40.4821 9.06532 40.8333 8.21747 40.8333 7.33341ZM58.7133 11.6401L56.3567 14.0001C55.7312 14.6251 55.3796 15.473 55.3793 16.3572C55.379 17.2415 55.73 18.0896 56.355 18.7151C56.98 19.3406 57.8279 19.6921 58.7122 19.6924C59.5964 19.6927 60.4445 19.3418 61.07 18.7167L63.4267 16.3601C64.0526 15.7351 64.4046 14.887 64.4052 14.0024C64.4058 13.1179 64.055 12.2693 63.43 11.6434C62.805 11.0175 61.9569 10.6655 61.0724 10.6649C60.1878 10.6643 59.3392 11.0151 58.7133 11.6401ZM60.8333 34.0001C60.8333 34.8841 61.1845 35.732 61.8096 36.3571C62.4348 36.9822 63.2826 37.3334 64.1667 37.3334H67.5C68.3841 37.3334 69.2319 36.9822 69.857 36.3571C70.4821 35.732 70.8333 34.8841 70.8333 34.0001C70.8333 33.116 70.4821 32.2682 69.857 31.6431C69.2319 31.0179 68.3841 30.6667 67.5 30.6667H64.1667C63.2826 30.6667 62.4348 31.0179 61.8096 31.6431C61.1845 32.2682 60.8333 33.116 60.8333 34.0001ZM4.16668 34.0001C4.16668 34.8841 4.51787 35.732 5.14299 36.3571C5.76811 36.9822 6.61595 37.3334 7.50001 37.3334H10.8333C11.7174 37.3334 12.5652 36.9822 13.1904 36.3571C13.8155 35.732 14.1667 34.8841 14.1667 34.0001C14.1667 33.116 13.8155 32.2682 13.1904 31.6431C12.5652 31.0179 11.7174 30.6667 10.8333 30.6667H7.50001C6.61595 30.6667 5.76811 31.0179 5.14299 31.6431C4.51787 32.2682 4.16668 33.116 4.16668 34.0001ZM11.57 11.6434C11.2601 11.953 11.0142 12.3206 10.8465 12.7253C10.6787 13.1299 10.5924 13.5637 10.5924 14.0017C10.5924 14.4398 10.6787 14.8736 10.8465 15.2782C11.0142 15.6829 11.2601 16.0505 11.57 16.3601L13.9267 18.7167C14.2364 19.0264 14.604 19.2721 15.0087 19.4397C15.4133 19.6073 15.847 19.6936 16.285 19.6936C16.723 19.6936 17.1567 19.6073 17.5613 19.4397C17.966 19.2721 18.3336 19.0264 18.6433 18.7167C18.953 18.407 19.1987 18.0394 19.3663 17.6347C19.5339 17.2301 19.6202 16.7964 19.6202 16.3584C19.6202 15.9204 19.5339 15.4867 19.3663 15.0821C19.1987 14.6774 18.953 14.3098 18.6433 14.0001L16.2867 11.6401C15.9769 11.3304 15.6091 11.0848 15.2043 10.9173C14.7995 10.7499 14.3657 10.6638 13.9277 10.6641C13.4896 10.6644 13.0559 10.7511 12.6514 10.9191C12.2468 11.0872 11.8794 11.3333 11.57 11.6434ZM70.8333 40.6667H4.16668C3.28262 40.6667 2.43478 41.0179 1.80965 41.6431C1.18453 42.2682 0.833344 43.116 0.833344 44.0001C0.833344 44.8841 1.18453 45.732 1.80965 46.3571C2.43478 46.9822 3.28262 47.3334 4.16668 47.3334H70.8333C71.7174 47.3334 72.5652 46.9822 73.1904 46.3571C73.8155 45.732 74.1667 44.8841 74.1667 44.0001C74.1667 43.116 73.8155 42.2682 73.1904 41.6431C72.5652 41.0179 71.7174 40.6667 70.8333 40.6667ZM64.1667 54.0001C64.1667 53.116 63.8155 52.2682 63.1904 51.6431C62.5652 51.0179 61.7174 50.6667 60.8333 50.6667H14.1667C13.2826 50.6667 12.4348 51.0179 11.8097 51.6431C11.1845 52.2682 10.8333 53.116 10.8333 54.0001C10.8333 54.8841 11.1845 55.732 11.8097 56.3571C12.4348 56.9822 13.2826 57.3334 14.1667 57.3334H60.8333C61.7174 57.3334 62.5652 56.9822 63.1904 56.3571C63.8155 55.732 64.1667 54.8841 64.1667 54.0001ZM24.1667 60.6667C23.2826 60.6667 22.4348 61.0179 21.8097 61.6431C21.1845 62.2682 20.8333 63.116 20.8333 64.0001C20.8333 64.8841 21.1845 65.732 21.8097 66.3571C22.4348 66.9822 23.2826 67.3334 24.1667 67.3334H50.8333C51.7174 67.3334 52.5652 66.9822 53.1904 66.3571C53.8155 65.732 54.1667 64.8841 54.1667 64.0001C54.1667 63.116 53.8155 62.2682 53.1904 61.6431C52.5652 61.0179 51.7174 60.6667 50.8333 60.6667H24.1667Z" fill="#238652"/>
</svg>
