<svg width="81" height="80" viewBox="0 0 81 80" fill="none" xmlns="http://www.w3.org/2000/svg">
<path d="M0.509711 39.9445C0.266361 50.3264 4.60524 60.3718 12.5757 67.8798C20.5462 75.3878 31.4983 79.7462 43.0325 80C50.639 79.9237 58.0821 78.0044 64.5795 74.4439C71.0769 70.8834 76.3886 65.8132 79.956 59.7663C80.3383 59.1365 80.5252 58.4258 80.4973 57.7086C80.4693 56.9914 80.2275 56.2942 79.7971 55.6901C79.3668 55.086 78.7637 54.5972 78.0513 54.2751C77.3388 53.9529 76.5432 53.8092 75.7478 53.859L75.2589 53.891C74.6768 53.931 74.0902 53.971 73.4814 53.971C64.3042 53.7178 55.6123 50.2025 49.3084 44.1945C43.0045 38.1865 39.6022 30.1753 39.8463 21.9146C39.8455 16.3265 41.3976 10.8269 44.3612 5.91641C44.7429 5.28724 44.9297 4.5773 44.9021 3.86088C44.8745 3.14445 44.6335 2.44787 44.2042 1.84403C43.7749 1.24019 43.1732 0.751284 42.4621 0.428472C41.7509 0.105661 40.9565 -0.0391899 40.1618 0.00907773C29.1786 0.946574 18.9933 5.58046 11.6419 12.9844C4.29056 20.3883 0.314896 30.0166 0.509711 39.9445ZM33.1406 9.34002C31.7042 13.4064 30.9727 17.6477 30.972 21.9146C30.7967 31.4032 34.4176 40.6323 41.1739 47.918C47.9302 55.2037 57.3716 60.0604 67.7756 61.6021C64.7197 64.8295 60.929 67.4283 56.66 69.2224C52.3911 71.0165 47.7437 71.9641 43.0325 72.0009C33.8553 71.7478 25.1634 68.2325 18.8594 62.2245C12.5555 56.2164 9.15322 48.2052 9.39732 39.9445C9.29349 33.2476 11.5296 26.6904 15.7899 21.199C20.0502 15.7076 26.1194 11.5593 33.1406 9.34002Z" fill="#238652"/>
</svg>
