<svg width="201" height="192" viewBox="0 0 201 192" fill="none" xmlns="http://www.w3.org/2000/svg">
<path d="M117.615 79.6527C115.577 78.2454 114.557 75.8603 114.983 73.5002L118.851 52.0581L102.465 36.8723C100.661 35.2011 100.012 32.7016 100.791 30.424C101.569 28.1469 103.639 26.4873 106.132 26.1434L128.778 23.0151L138.905 3.50594C140.019 1.35925 142.319 0 144.838 0C147.356 0 149.656 1.35925 150.771 3.50594L160.898 23.0151L183.544 26.1434C186.036 26.4873 188.107 28.1469 188.885 30.424C189.664 32.7016 189.015 35.2011 187.211 36.8723L170.825 52.0577L174.693 73.4998C175.119 75.8599 174.099 78.2447 172.061 79.6519C170.023 81.0595 167.321 81.2444 165.094 80.1311L144.838 70.007L124.584 80.1311C122.348 81.2478 119.648 81.0565 117.615 79.6527Z" fill="#FFB14A"/>
<path d="M197.241 112.234C194.749 110.804 191.569 111.093 189.403 112.939C189.178 113.131 188.953 113.32 188.728 113.505C174.547 125.33 156.912 131.184 139.317 131.184C126.097 131.184 112.904 127.88 101.215 121.3C101.025 121.2 100.84 121.095 100.651 120.986C95.5561 118.067 90.7572 114.519 86.3768 110.355C58.2482 83.6099 57.0531 40.5899 83.6597 12.4101C85.6006 10.3511 85.9047 7.32778 84.4008 4.95836C82.8969 2.58895 79.9415 1.43593 77.1183 2.11087C59.3159 6.37161 43.1057 15.0937 30.2391 27.3304C-9.41519 65.025 -9.41086 126.035 30.2391 163.725C49.7221 182.252 75.1379 191.658 100.651 191.972C127.059 192.299 153.568 182.876 173.709 163.725C186.58 151.493 195.751 136.082 200.236 119.158C200.946 116.474 199.733 113.665 197.241 112.234Z" fill="#FD9D20"/>
<path d="M200.299 119.178C195.813 136.102 186.643 151.513 173.772 163.745C153.632 182.897 127.122 192.319 100.714 191.992V121.006C100.903 121.115 101.089 121.22 101.278 121.321C112.967 127.9 126.16 131.204 139.379 131.204C156.975 131.204 174.61 125.35 188.791 113.525C189.016 113.341 189.241 113.152 189.466 112.959C191.631 111.114 194.812 110.825 197.304 112.254C199.796 113.684 201.009 116.494 200.299 119.178Z" fill="#FFB14A"/>
</svg>
