<svg width="216" height="235" viewBox="0 0 216 235" fill="none" xmlns="http://www.w3.org/2000/svg">
<path d="M159.979 123.701C168.414 116.098 173.095 106.49 173.213 96.5366C173.213 69.534 94.7376 47.645 94.7376 47.645C94.7376 47.645 16.2622 69.534 16.2622 96.5366C16.3796 106.49 21.0609 116.098 29.4965 123.701H159.979Z" fill="#FFB14A" stroke="#FD9D20" stroke-width="25" stroke-linecap="round" stroke-linejoin="round"/>
<path d="M170.41 123.701H19.065C14.4214 123.701 10.6569 126.568 10.6569 130.104C10.6569 133.64 14.4214 136.507 19.065 136.507H170.41C175.054 136.507 178.818 133.64 178.818 130.104C178.818 126.568 175.054 123.701 170.41 123.701Z" fill="white" stroke="#EFEFEF" stroke-width="9" stroke-linecap="round" stroke-linejoin="round"/>
<path d="M5.5 174.545V136.665H203.706V174.545" fill="#FD9D20"/>
<path d="M5.5 174.545V136.665H203.706V174.545" stroke="#EFEFEF" stroke-width="9" stroke-linecap="round" stroke-linejoin="round"/>
<path d="M94.7376 46.868V29.7939" stroke="#4C241D" stroke-width="13" stroke-linejoin="round"/>
<path d="M95.8084 7C92.0175 8.79209 89.3167 11.6576 88.3002 14.966C87.2836 18.2745 88.0347 21.755 90.388 24.6418C92.7414 27.5286 96.5043 29.5853 100.849 30.3594C105.194 31.1334 109.764 30.5615 113.555 28.7694" stroke="#4C241D" stroke-width="12" stroke-linecap="round" stroke-linejoin="round"/>
<path d="M15.7108 137.743V163.273C15.7108 168.751 17.84 174.106 21.83 178.664C25.8201 183.221 31.4925 186.778 38.1323 188.884V203.824H66.1592V188.884C72.7991 186.778 78.4715 183.221 82.4615 178.664C86.4516 174.106 88.5807 168.751 88.5807 163.273V137.743H15.7108Z" fill="#EFEFEF" stroke="#4C241D" stroke-width="6" stroke-linecap="round" stroke-linejoin="round"/>
<path d="M38.2724 203.824H71.6244C80.5814 203.824 89.1716 206.534 95.5051 211.357C101.839 216.18 105.397 222.721 105.397 229.542H4.5C4.5 222.721 8.05816 216.18 14.3917 211.357C20.7253 206.534 29.3154 203.824 38.2724 203.824Z" fill="#FFB14A" stroke="#EFEFEF" stroke-width="9" stroke-linecap="round" stroke-linejoin="round"/>
<path d="M66.5897 120.658L89.5648 137.598C89.5655 135.946 76.8367 128.11 76.0068 126.584C75.1769 125.057 70.462 123.305 68.9279 122.137C67.3938 120.969 65.5725 120.042 63.568 119.41C61.5635 118.778 59.4151 118.453 57.2455 118.454H38.6805C33.119 118.454 27.7853 120.136 23.8527 123.131C19.9201 126.125 17.7108 130.187 17.7108 134.422V146.199C17.7108 153.558 21.5495 160.615 28.3824 165.818C35.2152 171.021 44.4826 173.944 54.1458 173.944C63.8089 173.944 73.0763 171.021 79.9092 165.818C86.7421 160.615 90.5807 153.558 90.5807 146.199V141.525C90.5844 140.178 90.2392 138.843 89.5648 137.598C88.8903 136.353 87.9 135.221 86.6504 134.267C85.4008 133.314 83.9165 132.557 82.2825 132.041C80.6485 131.525 70.2827 121.749 60.7601 118.741L66.5897 120.658Z" fill="#EFEFEF"/>
<path d="M89.5648 137.598L66.5897 120.658L60.7601 118.741C70.2827 121.749 80.6485 131.525 82.2825 132.041C83.9165 132.557 85.4008 133.314 86.6504 134.267C87.9 135.221 88.8903 136.353 89.5648 137.598ZM89.5648 137.598C89.5655 135.946 76.8367 128.11 76.0068 126.584C75.1769 125.057 70.462 123.305 68.9279 122.137C67.3938 120.969 65.5725 120.042 63.568 119.41C61.5635 118.778 59.4151 118.453 57.2455 118.454H38.6805C33.119 118.454 27.7853 120.136 23.8527 123.131C19.9201 126.125 17.7108 130.187 17.7108 134.422V146.199C17.7108 153.558 21.5495 160.615 28.3824 165.818C35.2152 171.021 44.4826 173.944 54.1458 173.944C63.8089 173.944 73.0763 171.021 79.9092 165.818C86.7421 160.615 90.5807 153.558 90.5807 146.199V141.525C90.5844 140.178 90.2392 138.843 89.5648 137.598Z" stroke="#4C241D" stroke-width="6" stroke-linecap="round" stroke-linejoin="round"/>
<path d="M121.814 138.244V163.774C121.814 169.252 123.943 174.607 127.933 179.165C131.923 183.722 137.596 187.278 144.235 189.385V204.325H172.262V189.385C178.902 187.278 184.575 183.722 188.565 179.165C192.555 174.607 194.684 169.252 194.684 163.774V138.244H121.814Z" fill="#EFEFEF" stroke="#4C241D" stroke-width="6" stroke-linecap="round" stroke-linejoin="round"/>
<path d="M144.376 204.325H177.728C186.685 204.325 195.275 207.035 201.608 211.858C207.942 216.681 211.5 223.222 211.5 230.043H110.603C110.603 223.222 114.161 216.681 120.495 211.858C126.828 207.035 135.419 204.325 144.376 204.325Z" fill="#FFB14A" stroke="#EFEFEF" stroke-width="9" stroke-linecap="round" stroke-linejoin="round"/>
<path d="M170.469 117.744L193.444 134.684C193.445 133.032 180.716 125.197 179.886 123.67C179.056 122.144 174.341 120.391 172.807 119.223C171.273 118.055 169.452 117.128 167.447 116.496C165.443 115.864 163.294 115.539 161.125 115.54H142.56C136.998 115.54 131.664 117.222 127.732 120.217C123.799 123.212 121.59 127.273 121.59 131.509V143.285C121.59 150.644 125.429 157.701 132.261 162.904C139.094 168.108 148.362 171.031 158.025 171.031C167.688 171.031 176.955 168.108 183.788 162.904C190.621 157.701 194.46 150.644 194.46 143.285V138.611C194.464 137.264 194.118 135.93 193.444 134.684C192.769 133.439 191.779 132.307 190.529 131.354C189.28 130.4 187.796 129.644 186.162 129.127C184.528 128.611 174.162 118.835 164.639 115.827L170.469 117.744Z" fill="#EFEFEF"/>
<path d="M193.444 134.684L170.469 117.744L164.639 115.827C174.162 118.835 184.528 128.611 186.162 129.127C187.796 129.644 189.28 130.4 190.529 131.354C191.779 132.307 192.769 133.439 193.444 134.684ZM193.444 134.684C193.445 133.032 180.716 125.197 179.886 123.67C179.056 122.144 174.341 120.391 172.807 119.223C171.273 118.055 169.452 117.128 167.447 116.496C165.443 115.864 163.294 115.539 161.125 115.54H142.56C136.998 115.54 131.664 117.222 127.732 120.217C123.799 123.212 121.59 127.273 121.59 131.509V143.285C121.59 150.644 125.429 157.701 132.261 162.904C139.094 168.108 148.362 171.031 158.025 171.031C167.688 171.031 176.955 168.108 183.788 162.904C190.621 157.701 194.46 150.644 194.46 143.285V138.611C194.464 137.264 194.118 135.93 193.444 134.684Z" stroke="#4C241D" stroke-width="6" stroke-linecap="round" stroke-linejoin="round"/>
</svg>
