<svg width="81" height="59" viewBox="0 0 81 59" fill="none" xmlns="http://www.w3.org/2000/svg">
<path d="M79.4693 50.9949L52.7257 19.4051C51.1975 17.6 48.9052 17.6 47.3769 19.4051L42.0282 25.7231C40.118 23.9179 37.4436 22.5641 34.7692 22.5641C30.9487 22.5641 27.5102 24.8205 25.6 27.9795C24.0718 26.6256 22.1615 26.6256 20.6333 28.4308L1.53072 50.9949C0.38456 52.3488 0.00250775 54.1539 0.766612 55.959C1.14866 57.7641 2.67687 58.6667 4.20508 58.6667H42.4103H76.7949C78.3232 58.6667 79.8514 57.7641 80.2334 55.959C80.9975 54.1539 80.6155 52.3488 79.4693 50.9949ZM36.6795 32.041L32.859 36.5539L31.3308 34.7487C32.0949 32.041 34.7692 30.6872 36.6795 32.041ZM13.3743 49.6411L23.3077 37.9077L24.4538 39.2616L30.1846 46.0308L33.241 49.6411H13.3743ZM43.9385 49.6411L38.2077 42.8718L44.3205 35.6513L50.0513 28.8821L67.6257 49.6411H43.9385Z" fill="#238652"/>
<path d="M20.6332 16.6976C21.3973 17.6001 22.1614 18.0514 23.3075 18.0514C24.4537 18.0514 25.2178 17.6001 25.9819 16.6976C27.5101 14.8924 27.5101 12.1847 25.9819 10.3796L22.1614 5.86679C20.6332 4.06166 18.3409 4.06166 16.8127 5.86679C15.2845 7.67192 15.2845 10.3796 16.8127 12.1847L20.6332 16.6976Z" fill="#238652"/>
<path d="M34.7692 13.5385C37.0616 13.5385 38.5898 11.7333 38.5898 9.02565V4.51283C38.5898 1.80513 37.0616 0 34.7692 0C32.4769 0 30.9487 1.80513 30.9487 4.51283V9.02565C30.9487 11.7333 32.4769 13.5385 34.7692 13.5385Z" fill="#238652"/>
<path d="M46.2307 18.0514C47.3769 18.0514 48.141 17.6001 48.9051 16.6976L52.7256 12.1847C54.2538 10.3796 54.2538 7.67192 52.7256 5.86679C51.1974 4.06166 48.9051 4.06166 47.3769 5.86679L43.5564 10.3796C42.0282 12.1847 42.0282 14.8924 43.5564 16.6976C44.3205 17.6001 45.0846 18.0514 46.2307 18.0514Z" fill="#238652"/>
</svg>
