<svg width="731" height="347" viewBox="0 0 731 347" fill="none" xmlns="http://www.w3.org/2000/svg">
<g clip-path="url(#clip0_14_689)">
<path d="M28.223 332.818C25.9022 332.842 23.5835 332.67 21.292 332.302C18.9044 331.893 16.6238 331.163 14.2718 330.63C9.87629 329.62 5.27376 330.025 1.12251 331.786C-0.979963 332.676 0.124719 336.057 2.24501 335.167C6.31083 333.479 10.8345 333.24 15.0558 334.491C19.415 335.725 23.9236 336.354 28.4546 336.359C30.7531 336.341 30.5036 332.783 28.223 332.818Z" fill="#66192A"/>
<path d="M32.5883 328.032C28.9637 327.316 25.4599 326.088 22.1828 324.384C18.6445 322.743 14.9159 321.548 11.0825 320.825C8.85532 320.416 7.92881 323.868 10.1916 324.277C13.9629 324.996 17.6272 326.192 21.096 327.836C24.4334 329.564 28.0045 330.799 31.6974 331.502C31.9244 331.56 32.1607 331.574 32.393 331.541C32.6252 331.509 32.8486 331.431 33.0506 331.312C33.2525 331.193 33.429 331.035 33.5698 330.848C33.7106 330.66 33.813 330.447 33.8711 330.22C33.9327 329.992 33.9483 329.755 33.917 329.521C33.8856 329.287 33.808 329.061 33.6886 328.858C33.5692 328.654 33.4105 328.476 33.2216 328.334C33.0327 328.192 32.8174 328.09 32.5883 328.032Z" fill="#66192A"/>
<path d="M38.4502 318.352C37.6323 318.298 36.8242 318.143 36.0449 317.889C35.1362 317.711 34.2631 317.498 33.3188 317.284C31.2876 316.804 29.2564 316.305 27.2074 315.86C23.2579 314.89 19.1908 314.483 15.1271 314.65C12.8464 314.811 12.8464 318.369 15.1271 318.209C19.6659 318.074 24.1996 318.613 28.5793 319.811C30.7531 320.327 32.9446 320.878 35.1362 321.341C37.3277 321.804 39.2164 322.337 40.9625 320.861C42.7086 319.384 40.1785 316.875 38.4502 318.352Z" fill="#66192A"/>
<path d="M45.4169 309.739C44.4191 309.959 43.3762 309.834 42.4592 309.384L39.1808 308.369C37.1318 307.729 35.0827 307.106 33.0159 306.59C28.7942 305.411 24.3921 305.013 20.0269 305.416C19.5544 305.416 19.1012 305.603 18.767 305.937C18.4329 306.27 18.2452 306.723 18.2452 307.195C18.2452 307.667 18.4329 308.119 18.767 308.453C19.1012 308.787 19.5544 308.974 20.0269 308.974C24.5786 308.573 29.1651 309.056 33.5326 310.398C35.7598 311.021 37.9513 311.715 40.1607 312.426C42.3701 313.138 44.2409 313.957 46.3256 313.227C48.4102 312.498 47.5906 308.992 45.4169 309.739Z" fill="#66192A"/>
<path d="M50.4236 300.825C46.5875 300.436 42.775 299.842 39.0026 299.045C37.2208 298.636 35.2965 298.191 33.4613 297.711C31.6699 297.062 29.7336 296.92 27.8666 297.301C25.6751 297.942 26.5659 301.394 28.7753 300.753C30.4794 300.553 32.2063 300.805 33.7821 301.483C35.5638 301.946 37.4703 302.355 39.3411 302.728C43.0115 303.476 46.6998 304.01 50.4236 304.401C50.8962 304.401 51.3494 304.214 51.6835 303.88C52.0177 303.546 52.2054 303.094 52.2054 302.622C52.2077 302.387 52.1634 302.153 52.0749 301.935C51.9864 301.717 51.8555 301.519 51.6899 301.352C51.5242 301.185 51.327 301.052 51.1096 300.962C50.8923 300.871 50.6591 300.825 50.4236 300.825Z" fill="#66192A"/>
<path d="M57.6575 293.636C49.827 291.902 41.9112 290.578 33.9424 289.668C33.4699 289.668 33.0167 289.855 32.6825 290.189C32.3484 290.523 32.1607 290.975 32.1607 291.447C32.1607 291.919 32.3484 292.372 32.6825 292.706C33.0167 293.039 33.4699 293.227 33.9424 293.227C41.5866 294.125 49.1806 295.408 56.6954 297.07C58.9939 297.568 59.9204 294.134 57.6575 293.636Z" fill="#66192A"/>
<path d="M63.4482 285.718C61.3793 285.902 59.2952 285.818 57.2477 285.469C55.3591 285.131 53.5417 284.543 51.653 284.134C47.5773 283.428 43.429 283.237 39.3055 283.565C37.007 283.654 37.007 287.212 39.3055 287.123C43.42 286.763 47.565 286.984 51.6174 287.782C55.4556 288.908 59.45 289.413 63.4482 289.276C65.7289 289.081 65.7467 285.522 63.4482 285.718Z" fill="#66192A"/>
<path d="M70.5931 281.074C63.0741 279.952 56.1252 276.038 48.3924 276.269C46.094 276.269 46.094 279.828 48.3924 279.828C55.7689 279.597 62.4861 283.387 69.7735 284.526C70.0004 284.584 70.2368 284.598 70.469 284.565C70.7012 284.533 70.9247 284.455 71.1267 284.336C71.3286 284.217 71.505 284.059 71.6459 283.872C71.7867 283.684 71.8891 283.471 71.9472 283.244C72.0051 283.013 72.0158 282.772 71.9786 282.536C71.9415 282.301 71.8572 282.075 71.7309 281.872C71.6045 281.67 71.4387 281.495 71.2432 281.357C71.0478 281.22 70.8267 281.124 70.5931 281.074Z" fill="#66192A"/>
<path d="M79.484 275.112C75.2256 274.187 70.9672 273.173 66.7445 272.052C62.5217 270.931 58.5662 269.418 54.4504 270.575C54.0269 270.721 53.674 271.021 53.4622 271.416C53.2505 271.81 53.1953 272.27 53.3076 272.703C53.42 273.136 53.6917 273.511 54.0686 273.753C54.4455 273.995 54.8999 274.087 55.3413 274.009C59.0473 272.977 63.1988 274.828 66.7623 275.789C70.6822 276.821 74.6198 277.746 78.5753 278.618C80.8203 279.045 81.729 275.611 79.484 275.112Z" fill="#66192A"/>
<path d="M82.5308 271.127C78.7357 269.347 74.9049 267.835 71.0029 266.376C67.1008 264.917 63.2344 263.048 59.2077 264.116C58.7493 264.236 58.3576 264.533 58.1187 264.942C57.8797 265.351 57.8132 265.838 57.9337 266.296C58.0542 266.753 58.3519 267.145 58.7612 267.383C59.1705 267.622 59.658 267.688 60.1164 267.568C61.8137 267.228 63.5738 267.395 65.1765 268.048C66.9583 268.618 68.7401 269.294 70.5218 269.97C73.9784 271.269 77.3994 272.71 80.7847 274.223C80.9881 274.34 81.2127 274.417 81.4457 274.447C81.6787 274.478 81.9155 274.462 82.1424 274.401C82.3693 274.34 82.5818 274.234 82.7677 274.091C82.9537 273.947 83.1093 273.768 83.2257 273.564C83.3421 273.359 83.4165 273.133 83.4445 272.899C83.4725 272.665 83.4537 272.427 83.389 272.2C83.3243 271.973 83.2152 271.762 83.0679 271.577C82.9205 271.393 82.738 271.24 82.5308 271.127Z" fill="#66192A"/>
<path d="M92.5265 264.222C90.1622 264.398 87.785 264.188 85.4885 263.6C83.3136 262.937 81.2121 262.055 79.2168 260.966C75.0649 258.819 70.4163 257.812 65.7467 258.048C63.4661 258.172 63.4482 261.731 65.7467 261.607C68.1432 261.455 70.5487 261.683 72.8737 262.283C75.0571 262.968 77.1694 263.862 79.1811 264.952C83.2801 267.061 87.8691 268.038 92.473 267.781C94.8071 267.639 94.8249 264.08 92.5265 264.222Z" fill="#66192A"/>
<path d="M32.713 330.398C28.0092 330.79 24.0537 328.886 19.6349 327.676C15.1339 326.439 10.508 325.711 5.84416 325.505C3.54569 325.38 3.56351 328.939 5.84416 329.064C10.5348 329.28 15.1827 330.057 19.6884 331.377C21.8265 332.017 23.8933 332.889 26.0492 333.441C28.2271 333.977 30.4784 334.151 32.713 333.957C34.9758 333.761 34.9936 330.203 32.713 330.398Z" fill="black"/>
<path d="M36.5616 325.238C32.6061 323.459 28.6684 321.555 24.6951 319.74C21.0919 317.877 17.0996 316.889 13.0424 316.857C12.5699 316.857 12.1167 317.044 11.7826 317.378C11.4484 317.712 11.2607 318.164 11.2607 318.636C11.2607 319.108 11.4484 319.561 11.7826 319.895C12.1167 320.228 12.5699 320.416 13.0424 320.416C16.7755 320.484 20.4391 321.436 23.733 323.192L34.8155 328.334C36.8645 329.295 38.6641 326.163 36.5616 325.238Z" fill="black"/>
<path d="M43.2788 314.579C34.0849 313.992 25.7463 308.636 16.3387 310.22C14.0759 310.611 15.0024 314.046 17.2474 313.672C21.625 313.223 26.0475 313.771 30.1829 315.273C34.43 316.704 38.8216 317.665 43.2788 318.138C45.5772 318.28 45.5594 314.722 43.2788 314.579Z" fill="black"/>
<path d="M49.2833 306.946C41.3189 304.295 32.7664 300.469 24.1784 301.608C23.7058 301.608 23.2527 301.795 22.9185 302.129C22.5844 302.463 22.3966 302.915 22.3966 303.387C22.3966 303.859 22.5844 304.312 22.9185 304.645C23.2527 304.979 23.7058 305.166 24.1784 305.166C28.2777 304.772 32.4145 305.226 36.3299 306.501C40.3923 307.658 44.3657 309.099 48.3746 310.433C50.5483 311.127 51.457 307.675 49.2833 306.946Z" fill="black"/>
<path d="M54.1475 299.348C46.6641 297.23 39.8935 293.031 31.9112 292.64C29.6306 292.533 29.6306 296.092 31.9112 296.198C39.448 296.572 46.1652 300.771 53.2923 302.782C53.728 302.842 54.1707 302.74 54.5352 302.494C54.8996 302.248 55.16 301.875 55.2662 301.449C55.3723 301.023 55.3168 300.572 55.1103 300.184C54.9038 299.796 54.5608 299.498 54.1475 299.348Z" fill="black"/>
<path d="M61.0607 291.162C56.9627 289.846 52.8825 288.458 48.7488 287.266C44.6476 285.941 40.3157 285.48 36.0271 285.913C35.7999 285.971 35.5864 286.074 35.3989 286.214C35.2114 286.355 35.0535 286.531 34.9344 286.733C34.8152 286.934 34.737 287.158 34.7044 287.39C34.6718 287.621 34.6853 287.857 34.7442 288.084C34.8041 288.311 34.9085 288.524 35.0514 288.711C35.1942 288.898 35.3727 289.054 35.5764 289.172C35.7802 289.289 36.0052 289.365 36.2385 289.395C36.4718 289.426 36.7088 289.409 36.9358 289.348C40.9392 289.053 44.9597 289.611 48.731 290.985C52.5617 292.123 56.3569 293.387 60.1698 294.543C62.3436 295.291 63.2523 291.856 61.0607 291.162Z" fill="black"/>
<path d="M65.5151 286.056C62.1119 284.365 58.7444 282.497 55.2522 281.02C51.7936 279.331 47.8804 278.807 44.0984 279.525C43.64 279.646 43.2483 279.943 43.0094 280.352C42.7705 280.76 42.704 281.247 42.8245 281.705C42.945 282.163 43.2426 282.554 43.6519 282.793C44.0613 283.031 44.5487 283.098 45.0071 282.977C48.2687 282.417 51.6242 282.982 54.5217 284.579C57.6397 286.002 60.6865 287.621 63.7512 289.152C65.8002 290.166 67.5641 287.016 65.5151 286.056Z" fill="black"/>
<path d="M74.6911 279.027C66.8692 278.12 60.0807 272.817 51.9916 273.689C51.519 273.689 51.0658 273.876 50.7317 274.21C50.3975 274.544 50.2098 274.996 50.2098 275.468C50.2098 275.94 50.3975 276.393 50.7317 276.727C51.0658 277.06 51.519 277.248 51.9916 277.248C55.8527 277.1 59.6971 277.83 63.2344 279.383C66.9103 280.923 70.756 282.022 74.6911 282.657C75.1637 282.657 75.6169 282.47 75.951 282.136C76.2851 281.802 76.4729 281.35 76.4729 280.878C76.4825 280.638 76.4435 280.399 76.3582 280.175C76.273 279.951 76.1433 279.746 75.9769 279.573C75.8105 279.4 75.6108 279.263 75.3898 279.169C75.1689 279.075 74.9312 279.027 74.6911 279.027Z" fill="black"/>
<path d="M80.0898 274.223C76.2056 272.977 72.363 271.607 68.5619 270.112C66.7801 269.383 64.8915 268.6 63.0741 267.835C61.3192 266.919 59.3491 266.495 57.3725 266.607C56.8999 266.607 56.4467 266.794 56.1126 267.128C55.7784 267.462 55.5907 267.914 55.5907 268.386C55.5907 268.858 55.7784 269.311 56.1126 269.645C56.4467 269.978 56.8999 270.166 57.3725 270.166C59.2425 270.117 61.0904 270.579 62.7177 271.5C64.4995 272.265 66.2812 272.995 68.063 273.707C71.6265 275.148 75.4394 276.465 79.1811 277.657C81.3727 278.369 82.2636 274.917 80.0898 274.223Z" fill="black"/>
<path d="M87.0387 269.614C78.9851 267.158 72.3214 261.251 63.8759 260.005C63.6489 259.943 63.4119 259.927 63.1786 259.957C62.9453 259.987 62.7203 260.063 62.5165 260.181C62.3128 260.298 62.1343 260.455 61.9915 260.642C61.8487 260.828 61.7443 261.041 61.6843 261.269C61.6254 261.495 61.6119 261.731 61.6445 261.963C61.6771 262.195 61.7553 262.418 61.8745 262.62C61.9936 262.822 62.1515 262.998 62.339 263.139C62.5265 263.279 62.74 263.381 62.9672 263.44C71.3949 264.685 78.1299 270.557 86.13 273.048C88.3393 273.724 89.1768 270.272 87.0387 269.614Z" fill="black"/>
<path d="M95.7514 264.311C91.4574 263.066 87.8226 260.397 84.0631 258.119C80.347 255.614 76.0562 254.09 71.5909 253.688C69.2924 253.688 69.2924 257.247 71.5909 257.247C75.9205 257.425 79.7869 259.614 83.3861 261.856C86.9271 264.343 90.7942 266.331 94.8784 267.764C97.0521 268.404 97.943 264.97 95.7514 264.311Z" fill="black"/>
<path d="M635.534 261.144C632.858 260.989 630.175 261.229 627.569 261.856C624.996 262.33 622.381 262.539 619.765 262.479C619.293 262.479 618.839 262.666 618.505 263C618.171 263.334 617.983 263.786 617.983 264.258C617.983 264.73 618.171 265.183 618.505 265.516C618.839 265.85 619.293 266.038 619.765 266.038C622.487 266.097 625.209 265.888 627.89 265.415C630.391 264.813 632.965 264.573 635.534 264.703C636.006 264.703 636.459 264.516 636.794 264.182C637.128 263.848 637.315 263.396 637.315 262.924C637.315 262.452 637.128 261.999 636.794 261.665C636.459 261.332 636.006 261.144 635.534 261.144Z" fill="#66192A"/>
<path d="M647.917 266.216C646.275 266.073 644.623 266.073 642.981 266.216C641.273 266.441 639.613 266.94 638.064 267.692C635.153 269.187 631.96 270.054 628.692 270.237C626.393 270.237 626.393 273.796 628.692 273.796C632.134 273.686 635.515 272.855 638.616 271.358C639.967 270.625 641.421 270.097 642.928 269.792C644.587 269.623 646.258 269.623 647.917 269.792C650.215 269.934 650.197 266.376 647.917 266.216Z" fill="#66192A"/>
<path d="M663.008 272.977C658.304 272.354 654.1 273.938 649.663 275.361C645.05 276.853 640.317 277.942 635.516 278.618C635.06 278.739 634.671 279.035 634.434 279.442C634.197 279.849 634.131 280.333 634.251 280.789C634.372 281.244 634.669 281.632 635.076 281.869C635.484 282.105 635.969 282.171 636.425 282.052C640.886 281.429 645.289 280.447 649.592 279.116C653.583 277.87 657.823 275.86 662.064 276.411C662.52 276.531 663.005 276.465 663.412 276.228C663.82 275.991 664.116 275.603 664.238 275.148C664.359 274.697 664.298 274.217 664.068 273.811C663.838 273.405 663.457 273.106 663.008 272.977Z" fill="#66192A"/>
<path d="M664.327 276.34C662.794 278.12 659.73 278.582 657.574 279.134C655.044 279.774 652.46 280.273 649.93 280.913C645.226 281.878 640.839 284.007 637.173 287.106C635.48 288.654 638.01 291.163 639.685 289.614C643.249 286.287 648.131 284.97 652.799 283.903C655.347 283.315 657.912 282.799 660.425 282.123C662.822 281.674 665.048 280.571 666.857 278.938C668.354 277.141 665.841 274.561 664.327 276.34Z" fill="#66192A"/>
<path d="M674.358 281.678C669.85 280.006 665.218 281.536 661.031 283.369C656.627 285.342 652.125 287.089 647.543 288.6C645.369 289.294 646.26 292.746 648.451 292.052C652.76 290.672 656.989 289.056 661.12 287.212C664.986 285.433 669.191 283.529 673.449 285.13C675.587 285.878 676.478 282.426 674.358 281.678Z" fill="#66192A"/>
<path d="M681.913 287.123C676.984 286.823 672.043 287.494 667.374 289.098C663.026 290.611 658.839 293.921 654.1 294.009C653.627 294.009 653.174 294.197 652.84 294.531C652.505 294.864 652.318 295.317 652.318 295.789C652.318 296.261 652.505 296.713 652.84 297.047C653.174 297.381 653.627 297.568 654.1 297.568C658.999 297.479 662.919 294.579 667.338 292.888C671.985 291.13 676.953 290.378 681.913 290.682C684.282 290.824 684.282 287.266 681.913 287.123Z" fill="#66192A"/>
<path d="M692.514 293.778C682.037 291.661 672.915 298.547 662.581 298.316C662.108 298.316 661.655 298.503 661.321 298.837C660.987 299.171 660.799 299.623 660.799 300.095C660.799 300.567 660.987 301.02 661.321 301.353C661.655 301.687 662.108 301.875 662.581 301.875C667.449 301.71 672.261 300.773 676.835 299.099C681.574 297.64 686.563 296.216 691.534 297.213C693.833 297.693 694.759 294.241 692.514 293.778Z" fill="#66192A"/>
<path d="M696.024 298.743C693.73 299.569 691.497 300.556 689.343 301.697C686.934 302.564 684.436 303.161 681.895 303.476C676.835 304.206 671.685 304.366 666.697 305.576C666.238 305.696 665.846 305.993 665.608 306.402C665.369 306.811 665.302 307.298 665.423 307.755C665.543 308.213 665.841 308.604 666.25 308.843C666.659 309.082 667.147 309.148 667.605 309.028C672.594 307.818 677.726 307.658 682.804 306.91C685.266 306.575 687.685 305.979 690.02 305.131C692.26 303.989 694.562 302.973 696.915 302.088C697.268 301.898 697.546 301.595 697.705 301.228C697.864 300.861 697.895 300.451 697.792 300.064C697.689 299.678 697.458 299.337 697.138 299.097C696.817 298.857 696.425 298.733 696.024 298.743Z" fill="#66192A"/>
<path d="M701.566 305.949C697.663 309.277 692.318 310.113 687.401 310.754C682.055 311.448 676.71 312.053 672.006 314.757C671.595 314.993 671.295 315.383 671.171 315.84C671.047 316.297 671.111 316.785 671.347 317.195C671.583 317.606 671.973 317.906 672.431 318.029C672.889 318.153 673.377 318.09 673.788 317.854C678.652 315.06 684.354 314.775 689.824 314.01C695.007 313.551 699.952 311.625 704.078 308.458C705.824 306.964 703.294 304.455 701.566 305.949Z" fill="#66192A"/>
<path d="M711.169 311.11C706.18 310.327 701.601 311.964 697.022 313.743C692.255 315.639 687.269 316.931 682.18 317.587C679.917 317.854 679.899 321.43 682.18 321.145C687.052 320.587 691.839 319.44 696.434 317.729C700.782 316.11 705.468 313.796 710.243 314.544C712.505 314.9 713.432 311.465 711.169 311.11Z" fill="#66192A"/>
<path d="M717.191 322.996C712.808 321.074 707.944 322.462 703.401 322.996C698.52 323.725 693.546 323.532 688.737 322.427C688.292 322.338 687.83 322.422 687.445 322.662C687.06 322.902 686.781 323.279 686.665 323.717C686.55 324.155 686.605 324.621 686.821 325.019C687.037 325.417 687.397 325.718 687.828 325.861C692.408 326.98 697.151 327.269 701.833 326.715C704.149 326.484 706.448 326.181 708.746 325.879C710.954 325.358 713.261 325.438 715.428 326.11C717.494 327.017 719.294 323.921 717.191 322.996Z" fill="#66192A"/>
<path d="M727.044 332.623C717.958 327.284 707.356 329.615 697.414 328.299C696.958 328.179 696.473 328.245 696.066 328.482C695.658 328.719 695.361 329.107 695.24 329.562C695.121 330.017 695.187 330.502 695.424 330.908C695.661 331.315 696.05 331.612 696.505 331.733C705.984 332.996 716.675 330.612 725.281 335.719C725.484 335.834 725.708 335.909 725.941 335.938C726.173 335.967 726.409 335.95 726.635 335.888C726.861 335.826 727.072 335.72 727.257 335.577C727.442 335.433 727.597 335.255 727.713 335.051C727.828 334.848 727.903 334.624 727.932 334.392C727.961 334.16 727.944 333.924 727.882 333.699C727.82 333.473 727.714 333.262 727.571 333.077C727.427 332.893 727.248 332.738 727.044 332.623Z" fill="#66192A"/>
<path d="M729.717 332.32C725.333 331.446 720.792 331.81 716.603 333.37C712.345 334.669 708.122 336.324 703.597 336.057C701.298 335.914 701.298 339.473 703.597 339.615C707.896 339.606 712.155 338.797 716.158 337.231C720.238 335.932 724.55 334.651 728.808 335.754C729.253 335.843 729.715 335.759 730.1 335.519C730.485 335.279 730.764 334.902 730.88 334.464C730.996 334.026 730.94 333.56 730.724 333.162C730.508 332.763 730.148 332.462 729.717 332.32Z" fill="black"/>
<path d="M722.038 326.163C713.699 323.868 706.002 329.046 697.788 328.69C695.49 328.601 695.49 332.16 697.788 332.249C701.823 332.196 705.827 331.548 709.672 330.327C713.361 329.084 717.312 328.833 721.129 329.598C721.574 329.686 722.036 329.602 722.421 329.362C722.806 329.123 723.085 328.745 723.201 328.307C723.317 327.869 723.261 327.403 723.045 327.005C722.829 326.607 722.468 326.306 722.038 326.163Z" fill="black"/>
<path d="M710.599 318.138C706.608 316.982 702.759 318.459 699.107 320.007C695.424 321.647 691.432 322.478 687.4 322.444C686.928 322.444 686.475 322.632 686.141 322.966C685.806 323.299 685.619 323.752 685.619 324.224C685.619 324.696 685.806 325.148 686.141 325.482C686.475 325.816 686.928 326.003 687.4 326.003C691.327 326.091 695.23 325.383 698.875 323.921C702.278 322.569 706.002 320.487 709.69 321.573C710.135 321.661 710.597 321.577 710.982 321.337C711.367 321.098 711.646 320.72 711.762 320.282C711.878 319.844 711.822 319.378 711.606 318.98C711.39 318.582 711.03 318.281 710.599 318.138Z" fill="black"/>
<path d="M704.345 310.522C704.224 310.067 703.927 309.679 703.519 309.442C703.112 309.205 702.627 309.139 702.171 309.259C697.594 311.111 692.807 312.395 687.917 313.085C683.837 313.672 679.561 313.672 676.336 316.643C674.643 318.191 677.173 320.718 678.848 319.17C681.61 316.643 686.278 316.981 689.752 316.43C694.301 315.703 698.754 314.467 703.026 312.746C703.263 312.693 703.486 312.592 703.681 312.449C703.877 312.307 704.042 312.126 704.165 311.918C704.288 311.71 704.368 311.478 704.399 311.239C704.43 310.999 704.412 310.755 704.345 310.522Z" fill="black"/>
<path d="M699.908 303.031C695.808 303.5 691.809 304.617 688.06 306.341C684.425 308.085 680.44 308.979 676.407 308.956C674.109 308.796 674.126 312.355 676.407 312.515C684.835 313.138 691.712 307.177 699.908 306.59C702.189 306.465 702.207 302.906 699.908 303.031Z" fill="black"/>
<path d="M692.71 295.326C684.692 301.163 673.93 298.6 664.986 301.857C662.848 302.622 663.739 306.074 665.895 305.291C675.178 301.91 686.1 304.508 694.403 298.423C696.309 297.088 694.563 293.992 692.71 295.326Z" fill="black"/>
<path d="M685.013 289.828C680.388 290.518 675.802 291.45 671.276 292.622C669.227 293.187 667.254 293.994 665.396 295.024C663.614 296.02 662.064 297.693 660.051 298.209C659.62 298.351 659.26 298.652 659.044 299.051C658.828 299.449 658.772 299.915 658.888 300.353C659.004 300.791 659.283 301.168 659.667 301.408C660.052 301.648 660.514 301.732 660.959 301.643C662.934 300.905 664.78 299.86 666.429 298.547C668.22 297.461 670.15 296.623 672.167 296.056C676.694 294.89 681.279 293.964 685.904 293.28C688.167 292.871 687.258 289.419 685.013 289.828Z" fill="black"/>
<path d="M674.893 282.408C666.198 286.376 656.042 285.967 647.81 291.145C645.886 292.355 647.632 295.469 649.592 294.223C657.734 289.063 667.997 289.454 676.674 285.504C678.741 284.561 676.959 281.465 674.893 282.408Z" fill="black"/>
<path d="M669.44 277.621C661.423 277.764 654.794 282.96 646.955 283.796C646.482 283.796 646.029 283.983 645.695 284.317C645.361 284.651 645.173 285.103 645.173 285.575C645.173 286.047 645.361 286.5 645.695 286.833C646.029 287.167 646.482 287.355 646.955 287.355C650.867 286.808 654.682 285.711 658.287 284.098C661.801 282.47 665.578 281.482 669.44 281.18C669.913 281.18 670.366 280.993 670.7 280.659C671.034 280.325 671.222 279.873 671.222 279.401C671.222 278.929 671.034 278.476 670.7 278.142C670.366 277.809 669.913 277.621 669.44 277.621Z" fill="black"/>
<path d="M663.151 272.781C661.425 273.878 659.546 274.711 657.574 275.255C655.498 275.747 653.39 276.098 651.267 276.305C647.253 276.809 643.394 278.168 639.952 280.29C638.01 281.5 639.756 284.597 641.734 283.387C645.193 281.312 649.069 280.029 653.084 279.632C657.263 279.27 661.309 277.988 664.933 275.878C666.857 274.561 665.111 271.482 663.151 272.781Z" fill="black"/>
<path d="M657.378 269.223C653.539 269.113 649.707 269.617 646.028 270.717C642.287 272.003 638.617 273.488 635.035 275.166C634.627 275.4 634.329 275.787 634.206 276.24C634.082 276.693 634.143 277.177 634.376 277.586C634.608 277.996 634.993 278.297 635.447 278.424C635.901 278.551 636.387 278.492 636.799 278.262C640.095 276.713 643.473 275.347 646.919 274.169C650.308 273.149 653.84 272.681 657.378 272.781C659.676 272.87 659.676 269.312 657.378 269.223Z" fill="black"/>
<path d="M646.955 262.479C643.188 262.675 639.46 263.332 635.854 264.436C632.523 265.45 629.262 267.23 625.716 267.123C623.418 267.123 623.418 270.682 625.716 270.682C629.28 270.806 632.612 269.241 635.979 268.119C639.531 266.949 643.221 266.249 646.955 266.038C649.235 265.913 649.253 262.354 646.955 262.479Z" fill="black"/>
<path d="M709.102 336.84L649.841 284.97L635.017 271.998C630.99 268.44 626.963 264.4 622.099 261.998C611.409 256.767 599.132 262.603 588.246 263.938C562.892 267.016 537.484 261.785 512.361 258.884C487.646 256.151 462.783 254.962 437.919 255.325C387.923 255.788 338.141 260.753 288.252 263.6C238.791 266.411 188.812 267.158 139.779 258.991C133.667 257.977 127.609 256.767 121.533 255.521C115.894 254.069 110.068 253.47 104.25 253.742C93.8984 254.756 92.1879 259.382 85.0965 266.447C68.5084 282.959 45.7554 302.035 31.7687 320.807C28.9891 324.562 22.0047 335.042 21.6839 335.558C20.7574 338.655 203.868 348.459 296.074 345.452C318.756 344.722 341.437 343.672 364.137 343.761C386.836 343.85 408.966 346.181 431.434 346.822C453.902 347.463 475.425 344.01 497.501 341.768C519.277 339.805 541.166 339.407 562.998 340.576C611.409 342.623 660.229 348.334 708.354 339.74C708.637 339.647 708.893 339.484 709.097 339.266C709.301 339.048 709.447 338.783 709.522 338.494C709.596 338.205 709.597 337.902 709.524 337.613C709.45 337.324 709.305 337.058 709.102 336.84Z" fill="#894B07"/>
<path d="M676.443 328.032H676.104C669.155 316.199 659.73 306.572 650.073 297.444C640.416 288.315 630.83 279.418 621.297 270.45C591.738 270.45 562.179 270.45 532.62 270.45C389.01 270.45 245.347 271.5 101.756 270.219C87.0981 287.657 71.7037 304.265 55.5729 320.042C55.352 320.29 55.1946 320.587 55.1144 320.909C55.0342 321.231 55.0335 321.567 55.1124 321.89C55.1913 322.212 55.3474 322.51 55.5673 322.758C55.7872 323.007 56.0643 323.198 56.3747 323.316C95.6802 330.22 135.502 331.27 175.218 331.839C215.604 332.421 255.99 332.771 296.377 332.889C377.66 333.162 458.932 332.522 540.192 330.968C585.484 330.113 631.24 326.928 676.389 331.946C678.723 332.195 678.706 328.281 676.443 328.032Z" fill="#D15358"/>
<g style="mix-blend-mode:multiply" opacity="0.3">
<path d="M92.8472 311.145C122.381 318.584 153.121 319.952 183.2 315.167L179.904 321.483C179.468 322.323 179.209 323.243 179.141 324.187C179.073 325.13 179.197 326.078 179.507 326.971C179.817 327.865 180.306 328.687 180.944 329.386C181.582 330.085 182.355 330.647 183.218 331.039C196.599 337.178 212.51 337.178 227.512 336.911L615.596 330.238C621.235 330.208 626.684 328.199 630.99 324.562C642.019 314.953 635.623 301.946 626.75 294.97C612.727 283.92 593.591 282.675 575.738 281.874C502.508 278.653 429.278 275.433 355.994 273.92C282.283 272.408 208.483 272.603 134.843 276.287C121.729 276.927 103.52 274.685 91.7247 281.732C76.7045 290.664 73.5686 306.27 92.8472 311.145Z" fill="#764106"/>
</g>
<path d="M709.102 336.84L708.621 336.413C708.515 336.467 708.401 336.503 708.283 336.519C660.175 345.114 611.355 339.42 562.927 337.373C541.101 336.198 519.218 336.591 497.448 338.548C475.372 340.79 453.634 344.242 431.38 343.601C409.126 342.961 386.569 340.63 364.084 340.541C341.598 340.452 318.702 341.502 296.021 342.32C209.356 345.132 42.4414 336.644 23.4122 333.032C22.4145 334.509 21.6305 335.558 21.6305 335.719C20.704 338.815 203.815 348.619 296.021 345.63C318.702 344.883 341.384 343.85 364.084 343.85C386.783 343.85 408.912 346.27 431.38 346.911C453.848 347.552 475.372 344.1 497.448 341.858C519.218 339.901 541.101 339.508 562.927 340.683C611.355 342.729 660.175 348.424 708.283 339.829C708.589 339.752 708.869 339.595 709.095 339.375C709.32 339.154 709.483 338.877 709.566 338.573C709.65 338.269 709.651 337.948 709.569 337.644C709.488 337.339 709.326 337.062 709.102 336.84Z" fill="#66192A"/>
<path d="M634.18 265.326C632.329 260.368 631.271 255.149 631.044 249.863C630.598 239.186 634.803 228.759 633.698 218.065C632.754 208.777 626.661 199.221 616.398 199.114C616.102 199.099 615.807 199.168 615.549 199.312C615.29 199.457 615.078 199.673 614.937 199.933C614.508 199.975 614.106 200.161 613.798 200.462C613.49 200.763 613.295 201.161 613.244 201.588C612.264 209.862 611.908 218.19 611.623 226.499C611.516 229.578 611.427 232.638 611.32 235.717C611.213 238.795 611.124 241.5 610.981 244.4C610.694 251.63 609.986 258.837 608.861 265.984C607.592 272.897 605.836 279.711 603.605 286.376C601.253 293.743 599.061 301.198 598.99 308.992C598.99 309.464 599.178 309.917 599.512 310.25C599.846 310.584 600.299 310.772 600.772 310.772L617.663 312.426C621.547 312.8 625.716 312.729 628.068 309.117C628.672 308.125 629.162 307.069 629.529 305.967C629.886 304.988 630.188 303.974 630.509 303.031C631.489 300.238 632.451 297.444 633.431 294.632C635.428 289.77 636.776 284.667 637.44 279.454C637.814 274.33 635.943 270.006 634.18 265.326Z" fill="#FCB088"/>
<path d="M625.128 307.907C624.215 307.614 623.375 307.131 622.662 306.49C621.95 305.849 621.382 305.064 620.995 304.188C620.33 301.914 620.142 299.527 620.442 297.177C621.565 273.671 629.903 250.343 624.006 226.855C623.928 226.457 623.699 226.103 623.368 225.868C623.036 225.633 622.627 225.534 622.224 225.592C621.503 224.9 620.635 224.381 619.685 224.073C618.734 223.764 617.726 223.675 616.736 223.812C614.82 224.176 613.057 225.106 611.676 226.482C611.569 229.56 611.48 232.62 611.373 235.699C611.266 238.777 611.177 241.482 611.035 244.382C610.747 251.612 610.04 258.819 608.914 265.966C607.646 272.879 605.889 279.693 603.658 286.358C601.306 293.725 599.115 301.181 599.043 308.974C599.043 309.446 599.231 309.899 599.565 310.233C599.899 310.566 600.353 310.754 600.825 310.754L617.716 312.409C621.6 312.782 625.77 312.711 628.122 309.099C627.106 308.707 626.09 308.369 625.128 307.907Z" fill="#E0875E"/>
<path d="M630.099 222.727C627.878 217.282 625.58 211.867 623.204 206.481C620.959 201.339 619.124 195.04 614.402 191.605C610.952 189.382 607.016 188.021 602.928 187.637C602.504 186.245 601.68 185.007 600.558 184.079C600.006 183.662 599.408 183.31 598.776 183.029C593.876 179.274 587.266 179.701 581.546 181.445C577.812 182.851 573.998 184.04 570.125 185.004C565.783 185.546 561.39 185.546 557.047 185.004C550.437 184.523 543.043 184.737 537.822 189.399C536.573 190.721 535.413 192.124 534.348 193.598C533.59 194.614 532.592 195.427 531.444 195.965C529.501 196.783 527.132 196.125 525.154 195.84L523.782 195.645C523.744 195.48 523.714 195.314 523.693 195.146C517.421 162.441 511.132 129.7 502.098 97.6355C500.209 90.9627 498.16 84.3611 496.022 77.7596C496.307 65.8376 489.733 54.6274 482.517 45.4102C473.654 34.0276 463.489 23.7201 452.227 14.6978C446.775 10.3205 441.002 5.55171 434.57 2.70467C428.138 -0.14236 420.708 -1.1906e-05 413.563 0.338073C397.67 1.10321 381.491 1.33453 365.794 3.25628C358.231 4.08622 350.806 5.88021 343.7 8.59447C336.751 11.3525 330.123 14.8579 323.477 18.2922C309.58 25.4098 295.682 32.6875 281.909 40.1076C254.201 54.7174 227.423 71.0241 201.73 88.9342C195.375 93.4776 189.097 98.1337 182.897 102.902C177.391 107.155 171.244 111.355 167.645 117.476C165.863 120.43 164.723 123.419 162.033 125.661C159.486 127.53 156.839 129.259 154.104 130.839C149.863 133.668 146.139 137.957 146.3 143.455C146.336 145.439 147.104 147.339 148.456 148.793C148.51 149.008 148.6 149.213 148.723 149.398C157.4 162.07 169.393 172.121 183.396 178.456C199.645 185.591 217.98 187.37 235.281 190.36L237.597 190.751C254.719 193.652 271.86 196.641 288.68 201.018C297.528 203.275 306.247 206.007 314.8 209.204C322.444 212.104 330.284 215.947 335.201 222.727C337.897 226.405 339.363 230.838 339.388 235.396C339.388 240.557 338.569 245.663 338.515 250.824C338.433 260.303 339.846 269.737 342.702 278.778C342.542 278.943 342.423 279.143 342.355 279.363C342.287 279.582 342.272 279.815 342.31 280.041C343.201 287.372 344.092 294.775 347.103 301.608C348.527 304.976 350.536 308.066 353.037 310.736C355.852 313.672 359.219 315.985 362.284 318.619C364.908 321.256 367.994 323.391 371.389 324.918C375.344 326.359 379.905 326.234 384.057 326.234C393.304 326.234 402.516 325.309 411.745 324.847C421.007 324.472 430.283 324.901 439.469 326.128C448.723 327.307 458.043 327.902 467.372 327.907C485.759 327.907 504.218 328.227 522.606 327.622C532.67 327.033 542.694 325.88 552.629 324.17C562.589 322.729 572.762 321.804 582.705 323.903C582.769 324.092 582.872 324.265 583.007 324.411C583.142 324.558 583.306 324.675 583.488 324.755C583.671 324.836 583.868 324.877 584.067 324.878C584.267 324.878 584.464 324.837 584.647 324.758C589.475 323.289 594.097 321.214 598.402 318.583C602.169 316 605.276 312.568 607.471 308.565C607.72 308.138 607.97 307.693 608.202 307.248C613.547 297.106 616.13 285.629 619.248 274.685L629.458 238.795C630.394 236.076 631.103 233.285 631.578 230.45C631.761 227.791 631.252 225.13 630.099 222.727Z" fill="#DFCBA5"/>
<path d="M607.525 308.494C605.33 312.497 602.223 315.929 598.455 318.512C594.15 321.143 589.528 323.217 584.7 324.686C584.517 324.766 584.32 324.807 584.121 324.806C583.921 324.806 583.724 324.764 583.542 324.684C583.359 324.604 583.195 324.487 583.061 324.34C582.926 324.194 582.823 324.021 582.758 323.832C572.816 321.733 562.642 322.658 552.682 324.099C542.747 325.809 532.724 326.962 522.66 327.551C504.272 328.156 485.813 327.854 467.425 327.836C458.096 327.831 448.777 327.236 439.523 326.057C430.336 324.83 421.06 324.401 411.799 324.775C402.569 325.238 393.358 326.199 384.11 326.163C379.959 326.163 375.398 326.288 371.442 324.847C368.047 323.32 364.961 321.185 362.337 318.547C359.273 315.914 355.905 313.601 353.09 310.665C350.589 307.995 348.58 304.905 347.157 301.536C344.217 294.704 343.255 287.301 342.364 279.97C342.325 279.744 342.34 279.511 342.408 279.292C342.476 279.072 342.596 278.872 342.756 278.707C339.925 269.686 338.531 260.277 338.622 250.824C338.622 245.663 339.567 240.557 339.495 235.396C339.469 230.838 338.004 226.405 335.308 222.727C330.391 215.947 322.551 212.051 314.907 209.204C306.354 206.007 297.635 203.275 288.787 201.018C271.967 196.641 254.826 193.652 237.704 190.751C233.855 179.525 232.045 167.702 232.358 155.84C232.697 146.088 234.39 128.294 242.621 121.39C247.094 117.618 254.025 117.084 259.405 115.429C266.045 113.395 272.53 110.885 278.809 107.92C291.931 101.721 304.079 93.6473 314.871 83.9519C321.959 77.5866 328.404 70.542 334.114 62.9194C334.456 62.4742 334.945 62.1655 335.494 62.0492C336.043 61.9328 336.616 62.0165 337.109 62.2852C337.602 62.5538 337.982 62.9897 338.181 63.5139C338.38 64.0382 338.385 64.6162 338.195 65.1437C333.437 77.297 327.789 89.1299 321.945 100.838C321.457 101.818 321.263 102.917 321.386 104.004C321.509 105.092 321.944 106.12 322.639 106.966C323.333 107.812 324.258 108.439 325.301 108.773C326.345 109.106 327.462 109.132 328.52 108.846L332.083 107.867C333.904 107.37 335.819 107.322 337.663 107.729C339.506 108.136 341.223 108.985 342.664 110.202C344.106 111.419 345.23 112.969 345.938 114.716C346.646 116.464 346.918 118.358 346.729 120.234C346.017 127.351 345.553 134.469 345.304 141.693C345.09 147.814 345.5 154.985 351.7 157.708C353.116 158.3 354.639 158.59 356.174 158.559C357.708 158.528 359.219 158.178 360.609 157.53C366.881 154.772 370.088 148.829 373.081 143.117C369.675 152.992 367.614 163.281 366.952 173.705C365.972 188.758 367.843 204.506 362.035 218.456C371.474 218.063 380.85 220.175 389.206 224.578C386.051 226.499 382.383 227.411 378.694 227.193C379.828 227.842 380.776 228.769 381.45 229.888C382.124 231.006 382.5 232.277 382.542 233.581C382.542 237.371 380.28 240.788 377.66 243.528C375.041 246.268 371.959 248.635 369.892 251.82C365.259 258.938 366.578 268.564 370.908 275.806C378.997 289.33 394.07 297.408 409.589 299.793C425.109 302.177 441.055 299.508 456.467 296.234C459.3 295.647 462.454 295.077 464.895 296.625C467.336 298.173 467.514 301.964 465.412 303.138C486.13 295.123 505.391 283.768 522.428 269.525C520.895 268.443 519.129 267.735 517.272 267.46C515.415 267.185 513.519 267.35 511.737 267.941C517.698 250.406 520.796 232.028 520.913 213.51C520.913 208.367 520.771 203.1 522.464 198.242C522.861 197.092 523.393 195.994 524.049 194.968C524.998 193.25 526.343 191.783 527.973 190.688C529.603 189.592 531.47 188.9 533.421 188.669C533.445 190.335 533.886 191.968 534.704 193.42C537.323 198.349 543.613 201.445 549.065 199.488C553.145 197.993 556.62 194.15 561.395 196.445C562.648 197.065 563.747 197.958 564.61 199.057C565.474 200.156 566.08 201.434 566.384 202.798C568.664 212.442 567.4 222.584 562.82 231.375C563.426 224.115 563.586 216.268 559.595 210.164C555.604 204.061 545.858 201.267 540.923 206.695C554.214 224.257 552.272 252.14 535.399 266.304C557.965 246.961 577.815 224.666 594.411 200.022C597.297 222.122 582.829 242.478 568.094 259.187C561.537 266.607 554.785 273.831 548.032 281.056L540.62 288.974C538.391 291.481 535.973 293.813 533.386 295.949C519.132 307.053 496.913 305.416 484.958 318.939C488.682 324.277 496.895 322.035 502.775 319.295L558.01 293.511C565.315 290.113 572.78 286.59 578.464 280.895C592.166 267.159 592.005 245.005 601.11 227.887C605.044 250.987 601.289 274.738 590.42 295.504C588.87 298.476 587.106 301.554 589.564 305.487C590.333 306.687 591.34 307.717 592.523 308.512C593.706 309.308 595.04 309.853 596.442 310.113C600.215 310.587 604.046 310.027 607.525 308.494Z" fill="#DFCBA5"/>
<path d="M277.775 266.5C272.3 262.151 265.92 259.081 259.103 257.514C258.869 257.428 258.62 257.391 258.372 257.406C258.123 257.421 257.88 257.489 257.659 257.603C255.301 258.639 252.752 259.172 250.176 259.169C247.521 259.347 244.831 259.543 242.212 259.774C236.866 260.255 231.521 260.877 226.336 261.767C221.103 262.643 215.926 263.831 210.835 265.326C209.053 265.877 206.042 266.269 204.759 267.853C203.476 269.436 203.94 272.265 203.886 274.152C203.872 274.553 203.995 274.948 204.235 275.271C204.474 275.594 204.816 275.827 205.205 275.931C208.643 276.821 212.599 275.593 216.02 275.041L220.207 274.312C219.22 274.884 218.299 275.564 217.463 276.34C215.503 278.369 217.819 280.433 219.779 281.287C221.171 281.798 222.651 282.026 224.133 281.955C225.614 281.885 227.066 281.519 228.403 280.878C231.61 279.561 234.782 276.981 238.381 276.981C240.024 277.177 241.614 277.684 243.067 278.476C244.655 279.061 246.328 279.385 248.02 279.436C252.055 279.617 256.097 279.522 260.118 279.152C263.333 279.06 266.443 277.986 269.027 276.073C271.985 273.796 274.836 271.376 277.722 268.956C278.045 268.632 278.231 268.196 278.241 267.739C278.251 267.281 278.084 266.838 277.775 266.5Z" fill="#FCB088"/>
<path d="M290.337 253.848C289.125 251.055 287.931 248.261 286.773 245.45L283.21 237.069C282.401 234.75 281.195 232.588 279.646 230.681C278.135 229.143 276.215 228.069 274.113 227.583C272.011 227.098 269.814 227.222 267.78 227.94C267.485 228.045 267.223 228.224 267.019 228.462C266.816 228.699 266.679 228.986 266.622 229.293L252.368 255.984C252.233 256.221 252.155 256.487 252.14 256.759C252.125 257.031 252.172 257.304 252.279 257.555C252.386 257.806 252.549 258.029 252.756 258.207C252.963 258.385 253.208 258.513 253.472 258.582C258.604 259.473 263.489 261.439 267.807 264.349C272.124 267.259 275.776 271.049 278.524 275.468C278.679 275.742 278.904 275.97 279.177 276.128C279.449 276.287 279.759 276.37 280.074 276.37C280.389 276.37 280.699 276.287 280.971 276.128C281.243 275.97 281.469 275.742 281.624 275.468L286.969 267.692C288.641 265.465 290.199 263.155 291.637 260.77C292.689 258.35 291.335 256.162 290.337 253.848Z" fill="#DFCBA5"/>
<path d="M218.835 260.61C218.283 256.447 215.663 252.745 213.614 249.187L209.891 242.781C208.447 240.838 207.328 238.675 206.576 236.375C206.461 233.979 206.707 231.58 207.307 229.257C207.663 226.82 208.002 224.364 208.358 221.908C208.946 217.887 210.389 213.136 208.447 209.293C206.666 205.734 203.013 203.652 199.931 201.463L187.654 192.798L160.233 173.456C159.895 173.263 159.502 173.187 159.116 173.238C158.73 173.289 158.371 173.466 158.095 173.74C154.122 178.723 150.184 183.723 146.175 188.669C144.728 190.751 142.647 192.311 140.242 193.118C137.658 193.936 135.057 194.684 132.527 195.662C122.877 199.29 114.298 205.287 107.582 213.1C101.017 220.814 97.068 230.408 96.3038 240.503C95.9138 251.387 98.6994 262.15 104.322 271.482C110.255 281.821 118.576 290.486 127.288 298.529C127.181 298.965 127.242 299.426 127.46 299.819C127.678 300.211 128.037 300.507 128.464 300.647C135.413 303.12 143.253 300.273 150.095 298.707C153.017 298.031 156.705 297.764 158.665 295.148C159.337 294.156 159.888 293.087 160.304 291.963C160.999 290.451 161.552 289.721 163.244 290.7C164.598 291.483 165.757 292.728 167.057 293.618C168.514 294.626 170.058 295.502 171.672 296.234C174.723 297.642 177.965 298.595 181.293 299.063C184.395 299.722 187.6 299.722 190.701 299.063C193.267 298.191 192.483 294.704 191.913 292.835C191.343 290.967 190.986 290.113 192.875 289.49C194.258 289.213 195.616 288.826 196.937 288.333C197.829 287.868 198.591 287.189 199.154 286.356C199.717 285.524 200.063 284.564 200.162 283.565C201.889 283.547 203.542 282.865 204.777 281.661C206.46 279.807 207.405 277.401 207.432 274.899C213.329 271.909 219.833 268.244 218.835 260.61Z" fill="#FCB088"/>
<path d="M190.576 285.664C190.062 284.54 189.303 283.546 188.353 282.755C187.403 281.963 186.288 281.395 185.089 281.091C183.905 280.838 182.674 280.905 181.525 281.287C180.212 281.697 179.068 282.521 178.264 283.636C178.147 283.839 178.07 284.063 178.04 284.296C178.009 284.528 178.025 284.765 178.086 284.992C178.147 285.218 178.253 285.43 178.397 285.616C178.54 285.802 178.72 285.957 178.924 286.073C179.128 286.19 179.354 286.266 179.587 286.295C179.821 286.324 180.058 286.307 180.285 286.244C180.512 286.181 180.725 286.074 180.91 285.929C181.095 285.783 181.25 285.603 181.365 285.397C181.187 285.611 181.24 285.557 181.365 285.397C181.433 285.311 181.51 285.234 181.596 285.166C181.596 285.166 181.721 285.077 181.757 285.024C181.935 284.906 182.119 284.799 182.309 284.703H182.523C182.728 284.639 182.936 284.586 183.146 284.543H183.61H184.162H184.483C184.663 284.576 184.837 284.636 184.999 284.721C185.109 284.757 185.211 284.811 185.302 284.881C185.481 284.977 185.653 285.084 185.819 285.202C185.898 285.283 185.981 285.361 186.069 285.433C186.226 285.572 186.374 285.721 186.514 285.878L186.746 286.145C187.011 286.521 187.244 286.92 187.44 287.337C187.555 287.542 187.71 287.723 187.895 287.868C188.08 288.013 188.293 288.121 188.52 288.184C188.747 288.246 188.984 288.264 189.218 288.234C189.451 288.205 189.677 288.13 189.881 288.013C190.276 287.785 190.569 287.414 190.698 286.977C190.827 286.54 190.784 286.07 190.576 285.664Z" fill="#E0875E"/>
<path d="M156.349 192.709C155.672 190.289 151.574 177.708 147.44 182.032C146.754 183.028 146.158 184.081 145.658 185.182C144.796 186.61 143.78 187.941 142.629 189.15C140.628 191.111 138.293 192.702 135.734 193.847C135.461 193.863 135.196 193.946 134.963 194.089C134.73 194.232 134.535 194.43 134.398 194.666C132.616 197.584 132.42 201.036 132.01 204.364L130.603 216.09L127.716 240.005C126.727 247.871 126.299 255.797 126.433 263.724C126.611 271.856 127.075 280.006 126.433 288.138C126.435 288.487 126.539 288.829 126.734 289.12C126.929 289.41 127.205 289.637 127.528 289.772C127.852 289.907 128.207 289.944 128.551 289.878C128.895 289.812 129.212 289.646 129.462 289.401C131.565 287.052 133.774 284.775 135.716 282.283C136.515 281.309 137.119 280.192 137.498 278.991C137.704 277.313 138.18 275.679 138.906 274.152C140.505 272.23 142.756 270.963 145.231 270.593C147.422 270.094 149.81 269.988 151.289 268.066C152.768 266.144 152.607 263.226 152.269 261.037C152.135 259.863 151.684 258.746 150.966 257.806C150.248 256.866 149.288 256.138 148.188 255.699C146.081 255.135 143.946 254.678 141.792 254.329C140.504 253.931 139.308 253.282 138.271 252.421C137.235 251.56 136.378 250.503 135.752 249.311C132.812 243.759 136.286 237.781 139.315 233.119C142.344 228.457 146.727 225.343 151.146 221.802C153.154 220.344 154.835 218.482 156.081 216.337C157.327 214.192 158.11 211.811 158.38 209.346C158.723 203.723 158.035 198.085 156.349 192.709Z" fill="black"/>
<path d="M132.384 247.105C134.166 229.062 136.696 211.108 137.73 193.011C137.757 192.741 137.712 192.468 137.599 192.221C137.487 191.974 137.31 191.762 137.088 191.605C136.964 191.185 136.68 190.831 136.296 190.618C135.913 190.405 135.462 190.351 135.039 190.467C122.462 193.682 110.34 198.464 98.9586 204.702C93.6133 207.602 87.9652 210.663 83.885 215.2C80.2665 219.387 77.6901 224.368 76.366 229.738C74.9017 236.021 74.3023 242.475 74.5842 248.92C74.5842 255.272 74.4238 262.141 76.6867 268.155C79.0651 273.75 82.4397 278.869 86.6467 283.262C90.5805 287.615 95.2862 291.205 100.527 293.849C106.32 296.681 112.409 298.865 118.683 300.362C120.34 300.789 121.997 301.181 123.654 301.572C124.83 301.839 126.255 302.373 127.538 302.533C127.807 302.741 128.127 302.874 128.465 302.917C128.803 302.959 129.146 302.911 129.459 302.777C129.772 302.642 130.043 302.427 130.244 302.152C130.445 301.878 130.569 301.555 130.603 301.216C131.28 292.212 130.3 283.137 130.513 274.116C130.727 265.094 131.493 256.091 132.384 247.105Z" fill="#DBC498"/>
<path d="M128.928 258.671C120.008 259.049 111.078 258.223 102.38 256.215C94.0944 254.276 85.0074 251.607 78.2011 246.304C76.4194 244.916 73.8715 247.425 75.6889 248.831C82.8159 254.383 91.9563 257.354 100.633 259.507C109.881 261.721 119.39 262.649 128.892 262.265C131.226 262.105 131.226 258.546 128.928 258.671Z" fill="#DBC498"/>
<path d="M130.157 196.855C130.549 194.613 127.092 193.687 126.718 195.947C120.955 229.961 118.959 264.506 120.767 298.956C120.892 301.234 124.455 301.252 124.331 298.956C122.507 264.812 124.461 230.571 130.157 196.855Z" fill="#DBC498"/>
<path d="M135.146 199.399C128.554 198.456 122.05 200.289 115.832 202.317C109.838 204.202 104.071 206.745 98.6379 209.897C88.4417 215.677 80.3349 224.527 75.4751 235.183C74.5842 237.265 77.6666 239.044 78.5753 236.962C83.0307 227.1 90.4549 218.871 99.8138 213.421C104.82 210.416 110.144 207.975 115.689 206.143C121.533 204.168 128.072 201.979 134.309 202.851C136.482 203.154 137.409 199.702 135.146 199.399Z" fill="#DBC498"/>
<path d="M83.3326 260.326C82.8287 259.899 82.3581 259.435 81.925 258.938C81.7112 258.706 81.533 258.422 81.3192 258.208L81.2123 258.066L80.9273 257.656C80.5693 257.118 80.2421 256.559 79.9473 255.984C79.8047 255.699 79.68 255.414 79.5553 255.112V254.987C79.5553 254.809 79.4306 254.649 79.3771 254.471C79.3175 254.245 79.2137 254.032 79.0717 253.845C78.9297 253.659 78.7523 253.502 78.5496 253.384C78.347 253.266 78.123 253.188 77.8904 253.157C77.6579 253.125 77.4214 253.139 77.1945 253.199C76.9675 253.259 76.7545 253.362 76.5677 253.504C76.3808 253.646 76.2238 253.823 76.1055 254.025C75.9872 254.228 75.9099 254.452 75.8782 254.684C75.8465 254.916 75.8609 255.152 75.9205 255.379C76.8941 258.267 78.6007 260.854 80.8738 262.888C81.0399 263.054 81.2371 263.185 81.4542 263.275C81.6713 263.365 81.9039 263.411 82.1388 263.411C82.3738 263.411 82.6064 263.365 82.8235 263.275C83.0405 263.185 83.2378 263.054 83.4039 262.888C83.57 262.722 83.7018 262.525 83.7917 262.308C83.8816 262.091 83.9279 261.859 83.9279 261.624C83.9279 261.39 83.8816 261.158 83.7917 260.941C83.7018 260.724 83.57 260.527 83.4039 260.361L83.3326 260.326Z" fill="#DBC498"/>
<path d="M79.5553 255.183C79.4306 254.827 79.5553 255.059 79.5553 255.183V255.183Z" fill="#EDF3F4"/>
<path d="M82.8694 241.66C82.8085 241.433 82.7032 241.22 82.5595 241.033C82.4157 240.847 82.2364 240.691 82.0319 240.574L81.6043 240.396C81.3056 240.325 80.9943 240.325 80.6956 240.396L77.827 240.895C77.5951 240.946 77.3804 241.057 77.2034 241.215C77.0041 241.346 76.8392 241.523 76.7223 241.731C76.4962 242.138 76.4386 242.617 76.5619 243.065C76.6228 243.293 76.7281 243.506 76.8718 243.692C77.0156 243.878 77.1949 244.034 77.3994 244.151L77.827 244.329C78.1257 244.4 78.437 244.4 78.7357 244.329L81.6043 243.831C81.8362 243.779 82.0509 243.669 82.2279 243.51C82.4272 243.379 82.5921 243.202 82.709 242.994C82.9351 242.587 82.9927 242.108 82.8694 241.66Z" fill="#DBC498"/>
<path d="M95.3951 245.859C96.8918 233.065 101.311 220.716 102.148 207.851C102.29 205.574 98.727 205.574 98.5844 207.851C97.9332 214.462 96.7414 221.008 95.0209 227.425C93.5359 233.79 92.4234 240.236 91.689 246.731C90.2478 259.978 90.5112 273.356 92.473 286.536C92.7937 288.814 96.2325 287.889 95.9118 285.646C94.0106 272.463 93.8369 259.088 95.3951 245.859Z" fill="#DBC498"/>
<path d="M167.966 239.133C165.003 236.883 161.842 234.906 158.523 233.226C155.42 231.673 151.98 230.91 148.511 231.007C145.042 231.103 141.65 232.055 138.638 233.777C138.435 233.894 138.256 234.05 138.113 234.235C137.97 234.421 137.864 234.633 137.803 234.86C137.742 235.086 137.726 235.322 137.756 235.555C137.786 235.787 137.862 236.012 137.979 236.215C138.096 236.418 138.252 236.596 138.438 236.74C138.624 236.883 138.836 236.988 139.063 237.049C139.29 237.11 139.526 237.126 139.759 237.096C139.992 237.066 140.216 236.99 140.42 236.873C142.734 235.529 145.329 234.74 148 234.567C150.671 234.394 153.346 234.842 155.814 235.877C158.349 237.123 160.79 238.55 163.12 240.147C164.812 241.215 168.928 243.315 167.752 245.966C166.843 248.048 169.926 249.827 170.852 247.745C172.296 244.4 170.692 241.215 167.966 239.133Z" fill="#E0875E"/>
<path d="M161.035 246.891C160.914 246.436 160.617 246.048 160.209 245.811C159.802 245.574 159.317 245.508 158.861 245.628C157.141 245.894 155.397 245.984 153.658 245.895C153.584 245.809 153.5 245.731 153.409 245.663C153.077 245.397 152.778 245.093 152.518 244.756C152.307 244.452 152.122 244.131 151.966 243.795C151.856 243.476 151.772 243.149 151.716 242.816C151.699 242.585 151.699 242.353 151.716 242.122C151.716 241.65 151.529 241.198 151.194 240.864C150.86 240.53 150.407 240.343 149.935 240.343C149.462 240.343 149.009 240.53 148.675 240.864C148.341 241.198 148.153 241.65 148.153 242.122C148.122 243.062 148.273 243.998 148.598 244.88C146.108 244.059 143.915 242.524 142.291 240.468C142.125 240.301 141.928 240.168 141.711 240.078C141.494 239.988 141.261 239.941 141.026 239.941C140.791 239.941 140.558 239.988 140.341 240.078C140.123 240.168 139.926 240.301 139.761 240.468C139.429 240.801 139.243 241.252 139.243 241.722C139.243 242.192 139.429 242.643 139.761 242.976C144.482 249.044 152.625 250.094 159.77 249.026C160.218 248.905 160.6 248.614 160.836 248.215C161.073 247.817 161.144 247.342 161.035 246.891Z" fill="#E0875E"/>
<path d="M213.044 258.902C207.675 252.342 202.021 246.001 196.082 239.88C193.733 237.069 190.827 234.773 187.547 233.136C183.717 231.553 179.601 232.069 175.61 232.62C173.329 232.923 174.273 236.375 176.518 236.055C180.26 235.539 184.18 235.094 187.583 237.104C190.51 239.149 193.147 241.579 195.423 244.329C200.649 249.833 205.656 255.527 210.443 261.411C211.975 263.19 214.47 260.664 213.044 258.902Z" fill="#E0875E"/>
<path d="M298.052 306.341C289.906 301.659 281.333 297.762 272.448 294.703C272.311 294.504 272.131 294.339 271.92 294.221C271.709 294.103 271.473 294.035 271.232 294.023C270.99 294.011 270.749 294.055 270.527 294.151C270.306 294.248 270.109 294.394 269.953 294.579L268.011 296.821L266.55 298.494C266.117 299.041 265.653 299.564 265.161 300.059C264.89 300.305 264.575 300.498 264.234 300.629C263.171 300.825 262.086 300.879 261.009 300.789C256.893 300.914 252.76 300.914 248.644 300.789C244.528 300.664 240.715 300.344 236.742 300.042C235.25 299.822 233.728 299.994 232.323 300.54C230.633 301.447 228.753 301.947 226.835 301.999C223.04 301.999 219.227 301.714 215.45 301.91C214.168 301.932 212.903 302.204 211.726 302.711C211.112 303.007 210.557 303.411 210.087 303.903C209.549 304.582 208.805 305.069 207.966 305.291C204.919 306.198 202.621 308.85 199.984 310.629C197.127 312.51 194.059 314.05 190.844 315.22C189.096 315.857 187.311 316.386 185.498 316.804C184.162 317.106 182.558 317.159 181.721 318.387C181.392 318.918 181.252 319.544 181.323 320.163C181.395 320.783 181.673 321.361 182.113 321.804C182.52 322.236 183.028 322.56 183.592 322.747C183.911 322.842 184.24 322.902 184.572 322.925H185.213C185.213 322.925 185.32 322.925 185.374 322.925C185.322 323.179 185.326 323.441 185.386 323.694C185.446 323.946 185.561 324.182 185.722 324.386C185.883 324.589 186.087 324.755 186.32 324.871C186.552 324.988 186.807 325.052 187.066 325.06C190.92 325.245 194.783 325.036 198.594 324.437C198.351 324.936 198.166 325.462 198.042 326.003C197.983 326.557 198.096 327.116 198.367 327.604C198.638 328.091 199.054 328.483 199.556 328.726C201.223 329.207 202.975 329.316 204.688 329.046C206.951 329.046 209.213 328.939 211.458 328.779C215.445 328.344 219.405 327.702 223.325 326.857C227.886 326.039 231.503 328.334 235.797 329.153C239.862 329.734 243.971 329.943 248.074 329.775C252.581 329.775 257.089 329.775 261.615 329.775C266.141 329.775 270.524 329.473 275.049 329.046C278.575 328.875 282.025 327.96 285.17 326.359C287.616 324.926 289.778 323.056 291.548 320.843C293.491 318.414 295.175 315.79 296.573 313.013C297.286 311.625 297.963 310.238 298.622 308.867C298.758 308.666 298.851 308.44 298.896 308.201C298.941 307.963 298.936 307.718 298.883 307.481C298.83 307.245 298.728 307.021 298.585 306.825C298.442 306.629 298.261 306.464 298.052 306.341Z" fill="#FCB088"/>
<path d="M224.323 317.515C220.296 316.359 216.358 317.515 212.474 318.601C208.59 319.686 204.242 320.843 200.002 321.768C197.757 322.248 198.416 325.754 200.661 325.327C204.545 324.473 208.394 323.506 212.207 322.426C215.663 321.43 219.494 319.917 223.111 320.95C225.374 321.519 226.532 318.138 224.323 317.515Z" fill="#E0875E"/>
<path d="M230.274 319.188L230.131 318.761C229.992 318.472 229.776 318.226 229.508 318.049L229.347 317.942C229.164 317.811 228.949 317.731 228.724 317.711C228.501 317.658 228.269 317.658 228.047 317.711C227.813 317.755 227.594 317.852 227.405 317.996C227.193 318.107 227.014 318.273 226.888 318.476L226.675 318.903C226.603 319.196 226.603 319.501 226.675 319.793L226.817 320.238C226.957 320.527 227.172 320.773 227.441 320.95L227.601 321.039C227.779 321.182 227.997 321.269 228.225 321.288C228.446 321.35 228.681 321.35 228.902 321.288C229.136 321.258 229.358 321.166 229.543 321.021C229.756 320.903 229.934 320.731 230.06 320.523L230.274 320.113C230.348 319.809 230.348 319.492 230.274 319.188Z" fill="#E0875E"/>
<path d="M220.332 309.028C217.359 308.9 214.381 308.995 211.423 309.312C208.521 309.965 205.713 310.981 203.066 312.337C197.436 314.71 191.723 316.833 185.926 318.707C185.472 318.847 185.093 319.16 184.87 319.579C184.648 319.998 184.602 320.488 184.741 320.941C184.881 321.394 185.194 321.773 185.614 321.995C186.033 322.217 186.524 322.263 186.977 322.124C192.56 320.273 198.066 318.227 203.494 315.985C206.016 314.7 208.66 313.668 211.387 312.907C214.398 312.497 217.442 312.39 220.474 312.586C222.808 312.604 222.63 309.045 220.332 309.028Z" fill="#E0875E"/>
<path d="M221.223 302.729C217.033 302.616 212.845 303.01 208.75 303.903C208.307 304.06 207.944 304.386 207.741 304.809C207.537 305.233 207.509 305.719 207.663 306.163C207.741 306.384 207.862 306.588 208.019 306.762C208.176 306.936 208.366 307.078 208.578 307.179C208.79 307.28 209.02 307.338 209.254 307.35C209.488 307.362 209.723 307.327 209.944 307.248C213.729 306.469 217.592 306.14 221.454 306.27C221.921 306.229 222.352 306.006 222.656 305.65C222.959 305.293 223.11 304.832 223.076 304.366C223.039 303.906 222.826 303.479 222.48 303.174C222.134 302.868 221.684 302.709 221.223 302.729Z" fill="#E0875E"/>
<path d="M286.435 307.693C279.967 304.65 273.357 301.608 268.011 296.821L266.55 298.494C266.117 299.041 265.653 299.564 265.161 300.06C268.889 304.027 273.132 307.48 277.775 310.327C282.569 313.561 287.195 317.035 291.637 320.736C293.58 318.308 295.264 315.684 296.662 312.907C293.355 310.975 289.941 309.235 286.435 307.693Z" fill="#FCB088"/>
<path d="M360.805 250.183C360.606 246.003 360.124 241.842 359.362 237.727C357.676 229.314 355.535 220.998 352.948 212.816C350.362 204.586 348.303 196.2 346.783 187.708C345.625 180.342 344.662 172.886 337.001 169.523C333.502 168.208 329.895 167.202 326.221 166.516C321.933 165.448 317.687 164.262 313.482 162.957C305.143 160.395 296.929 157.476 288.715 154.594L286.061 153.562C284.374 150.905 282.628 148.289 280.822 145.715C277.401 140.786 273.784 135.964 270.025 131.284C266.725 126.708 262.831 122.591 258.443 119.042C248.858 112.102 235.744 115.483 225.356 118.668C213.989 122.373 203.194 127.644 193.285 134.327C183.831 140.707 174.764 147.641 166.131 155.092C159.608 151.488 153.324 147.47 147.315 143.063C146.975 142.866 146.579 142.788 146.189 142.839C145.799 142.891 145.437 143.07 145.159 143.348L131.191 159.487C131.065 159.641 130.968 159.815 130.905 160.003C130.625 160.327 130.47 160.741 130.47 161.169C130.47 161.597 130.625 162.011 130.905 162.334L164.1 198.189C166.139 200.686 168.541 202.863 171.227 204.648C172.85 205.357 174.391 206.24 175.823 207.282C177.089 208.421 178.051 209.826 179.191 211.072C183.645 215.965 190.487 218.367 196.599 220.485C202.086 222.389 208.34 223.172 213.508 220.663L224.198 225.752C229.802 228.671 235.622 231.158 241.606 233.19C247.7 234.703 253.947 235.515 260.225 235.61L278.559 236.784C276.991 242.265 275.887 248.35 278.452 253.635C279.842 256.482 282.568 258.119 284.19 260.753C285.259 262.532 284.689 263.867 283.744 265.504C282.586 267.514 281.375 269.525 280.181 271.518C275.922 278.778 271.397 285.931 267.37 293.316C265.588 296.536 267.281 298.458 269.954 300.326C272.713 302.197 275.621 303.839 278.648 305.237C285.597 308.583 292.992 311.376 298.729 316.697C298.901 316.857 299.104 316.981 299.325 317.062C299.546 317.144 299.781 317.18 300.016 317.17C300.251 317.161 300.482 317.104 300.696 317.004C300.909 316.905 301.1 316.764 301.259 316.59C301.428 316.541 301.59 316.47 301.74 316.377C311.661 309.904 321.067 302.676 329.874 294.757C336.591 295.22 341.366 289.632 345.054 284.579L353.446 273.013C355.852 269.703 358.56 266.464 359.754 262.479C360.774 258.465 361.129 254.311 360.805 250.183Z" fill="#DFCBA5"/>
<path d="M278.702 147.281C271.111 145.015 263.371 143.279 255.539 142.085C247.396 141.088 239.022 142.69 230.915 143.562C228.652 143.811 228.635 147.37 230.915 147.12C238.719 146.284 246.951 144.665 254.737 145.555C262.524 146.695 270.213 148.42 277.74 150.715C278.196 150.842 278.684 150.784 279.096 150.552C279.509 150.32 279.813 149.934 279.94 149.478C280.068 149.023 280.009 148.535 279.777 148.123C279.545 147.711 279.158 147.408 278.702 147.281Z" fill="#DBC498"/>
<path d="M212.706 215.414C209.142 209.328 205.579 203.207 201.784 197.193C198.755 191.937 194.766 187.296 190.024 183.509C188.242 182.139 186.461 185.289 188.242 186.605C192.689 190.286 196.401 194.771 199.182 199.826C202.746 205.574 206.113 211.392 209.57 217.175C210.781 219.133 213.9 217.371 212.706 215.414Z" fill="#DBC498"/>
<path d="M186.567 179.381L186.389 178.954C186.227 178.678 185.993 178.45 185.712 178.296L184.055 177.157C183.863 177.033 183.642 176.96 183.414 176.943C183.192 176.881 182.958 176.881 182.737 176.943C182.503 176.991 182.288 177.102 182.113 177.264C181.906 177.385 181.738 177.564 181.632 177.78L181.454 178.207C181.383 178.505 181.383 178.816 181.454 179.114L181.632 179.541C181.796 179.821 182.029 180.054 182.309 180.217C182.861 180.591 183.414 180.965 183.948 181.356C184.15 181.472 184.375 181.539 184.607 181.552C184.829 181.614 185.063 181.614 185.285 181.552C185.518 181.504 185.734 181.393 185.908 181.232C186.107 181.1 186.272 180.923 186.389 180.716L186.567 180.288C186.639 179.99 186.639 179.679 186.567 179.381Z" fill="#DBC498"/>
<path d="M325.58 186.943C325.277 184.701 321.713 184.666 322.016 186.943C323.37 197.62 314.301 204.969 306.8 210.93L280.323 232.016C278.542 233.439 281.072 235.948 282.853 234.524C292.297 227.015 301.776 219.542 311.183 211.979C318.827 205.823 326.952 197.638 325.58 186.943Z" fill="#DBC498"/>
<path d="M314.462 189.826C314.343 189.62 314.184 189.44 313.994 189.296C313.804 189.152 313.588 189.048 313.357 188.99C312.905 188.872 312.426 188.936 312.021 189.168C311.816 189.284 311.637 189.44 311.493 189.627C311.349 189.813 311.244 190.026 311.183 190.253L310.649 193.812C310.596 194.034 310.596 194.266 310.649 194.488C310.651 194.721 310.719 194.95 310.845 195.146C310.96 195.352 311.114 195.532 311.299 195.678C311.485 195.823 311.697 195.93 311.924 195.993C312.151 196.056 312.388 196.073 312.622 196.044C312.856 196.015 313.081 195.939 313.286 195.822C313.492 195.704 313.672 195.545 313.816 195.356C313.96 195.166 314.064 194.95 314.123 194.719L314.64 191.16C314.702 190.939 314.702 190.705 314.64 190.484C314.633 190.254 314.572 190.029 314.462 189.826Z" fill="#DBC498"/>
<path d="M333.384 287.782C333.218 287.615 333.021 287.482 332.804 287.392C332.587 287.302 332.354 287.255 332.119 287.255C331.884 287.255 331.651 287.302 331.434 287.392C331.216 287.482 331.019 287.615 330.854 287.782L330.604 287.96L330.07 288.298L329.143 288.76C328.912 288.76 328.947 288.76 329.143 288.76L328.823 288.867C328.644 288.867 328.484 288.992 328.306 289.027L327.29 289.294C326.616 289.451 325.931 289.558 325.241 289.614H324.065C324.226 289.436 324.386 289.241 324.564 289.063C325.17 288.44 325.794 287.853 326.453 287.283L327.433 286.447L328.324 285.753C328.527 285.636 328.706 285.48 328.849 285.295C328.992 285.109 329.098 284.897 329.159 284.671C329.22 284.444 329.236 284.208 329.206 283.975C329.176 283.743 329.1 283.519 328.983 283.315C328.866 283.112 328.71 282.934 328.524 282.791C328.338 282.647 328.126 282.542 327.899 282.481C327.672 282.42 327.436 282.404 327.203 282.434C326.97 282.464 326.746 282.54 326.542 282.657C325.096 283.716 323.726 284.875 322.444 286.127C321.856 286.696 321.286 287.319 320.751 287.906C320.349 288.327 319.975 288.773 319.629 289.241C318.471 288.422 317.295 287.639 316.065 286.874C320.239 284.603 323.883 281.474 326.756 277.692C328.239 275.761 329.494 273.665 330.497 271.447C331.673 268.849 332.689 266.109 331.495 263.404C331.263 262.994 330.878 262.692 330.424 262.566C329.969 262.439 329.483 262.497 329.072 262.728C320.555 267.069 315.246 275.433 310.72 283.529L305.25 280.344L307.78 276.625C307.898 276.422 307.974 276.197 308.005 275.965C308.036 275.732 308.02 275.495 307.958 275.269C307.897 275.042 307.792 274.83 307.648 274.644C307.504 274.459 307.325 274.303 307.121 274.187C306.916 274.07 306.691 273.995 306.457 273.965C306.223 273.936 305.986 273.953 305.759 274.016C305.532 274.079 305.32 274.186 305.135 274.332C304.949 274.477 304.795 274.658 304.68 274.863L303.575 276.5C302.929 272.665 303.588 268.725 305.446 265.308C305.682 264.897 305.746 264.41 305.622 263.953C305.498 263.495 305.198 263.106 304.787 262.87C304.376 262.634 303.887 262.571 303.43 262.694C302.972 262.818 302.582 263.118 302.346 263.528C300.096 267.669 299.287 272.438 300.047 277.087C295.979 274.509 292.286 271.384 289.072 267.799C287.575 266.02 285.063 268.6 286.559 270.326C296.412 281.714 311.629 286.002 322.604 296.002C324.297 297.55 326.827 295.042 325.117 293.493L324.582 293.031C325.858 292.963 327.127 292.797 328.377 292.533C330.235 292.107 331.976 291.274 333.473 290.095C333.737 289.762 333.873 289.346 333.857 288.922C333.84 288.498 333.673 288.093 333.384 287.782ZM328.235 267.443C328.128 267.781 328.021 268.119 327.914 268.404C327.565 269.341 327.16 270.256 326.702 271.144C325.762 273.008 324.627 274.768 323.317 276.393C320.943 279.307 318.049 281.756 314.782 283.618C318.275 277.479 322.319 271.376 328.235 267.443Z" fill="#DBC498"/>
<path d="M326.987 202.3C321.428 210.592 316.208 219.578 308.814 226.41C305.403 229.681 301.325 232.176 296.858 233.724C292.404 235.165 286.684 235.806 282.746 232.727C280.965 231.339 278.417 233.848 280.216 235.254C288.787 241.909 300.938 237.211 308.528 231.304C317.704 224.186 323.709 213.51 330.088 204.061C331.371 202.157 328.27 200.396 326.987 202.3Z" fill="#DBC498"/>
<path d="M321.981 291.198C321.815 291.031 321.618 290.899 321.401 290.809C321.184 290.718 320.951 290.672 320.716 290.672C320.48 290.672 320.248 290.718 320.03 290.809C319.813 290.899 319.616 291.031 319.451 291.198L295.415 310.772C295.083 311.105 294.897 311.556 294.897 312.026C294.897 312.496 295.083 312.947 295.415 313.281C295.58 313.447 295.777 313.58 295.995 313.67C296.212 313.76 296.445 313.807 296.68 313.807C296.915 313.807 297.148 313.76 297.365 313.67C297.582 313.58 297.779 313.447 297.945 313.281L321.981 293.707C322.313 293.374 322.499 292.923 322.499 292.453C322.499 291.983 322.313 291.532 321.981 291.198Z" fill="#DBC498"/>
<path d="M298.034 295.148C297.2 294.288 296.115 293.712 294.935 293.505C293.754 293.297 292.537 293.467 291.459 293.992C291.254 294.107 291.073 294.261 290.927 294.446C290.782 294.631 290.674 294.843 290.611 295.07C290.548 295.296 290.531 295.533 290.56 295.767C290.59 296 290.665 296.225 290.782 296.43C290.899 296.633 291.054 296.812 291.24 296.956C291.426 297.099 291.639 297.205 291.865 297.266C292.092 297.327 292.329 297.343 292.562 297.312C292.795 297.282 293.02 297.206 293.223 297.088L293.526 296.999H294.061L294.399 297.088H294.649C294.751 297.127 294.847 297.181 294.934 297.248L295.112 297.355L295.433 297.657C295.464 297.713 295.507 297.761 295.557 297.8L295.771 298.156C295.771 298.156 295.771 298.333 295.914 298.405V298.547V298.654V298.85C295.914 299.027 295.914 299.188 296.038 299.348C296.046 299.389 296.046 299.431 296.038 299.472C296.038 299.668 296.038 299.864 296.038 300.059C296.047 300.22 296.047 300.38 296.038 300.54C296.038 300.54 296.038 300.647 296.038 300.718C296.038 300.789 295.949 301.074 295.896 301.252C295.904 301.287 295.904 301.323 295.896 301.358L295.789 301.554L295.593 301.785L295.433 301.892L295.147 302.052H294.951L294.559 302.141H293.669H293.419C293.279 302.122 293.141 302.086 293.009 302.035L292.724 301.946H292.582H292.439L292.172 301.803L291.655 301.501L291.406 301.341L290.96 300.931L290.747 300.718L290.64 300.576L290.444 300.237V300.059C290.444 299.686 290.444 299.917 290.444 300.059C290.52 299.829 290.548 299.585 290.527 299.343C290.505 299.101 290.435 298.866 290.319 298.653C290.203 298.439 290.045 298.252 289.853 298.102C289.662 297.952 289.442 297.842 289.207 297.78C288.972 297.718 288.727 297.705 288.486 297.741C288.246 297.777 288.015 297.862 287.809 297.991C287.603 298.119 287.425 298.288 287.287 298.488C287.148 298.688 287.052 298.914 287.005 299.152C286.888 300.349 287.148 301.553 287.748 302.596C288.348 303.639 289.26 304.469 290.355 304.971C291.208 305.481 292.155 305.818 293.139 305.962C294.124 306.105 295.128 306.053 296.092 305.807C297.056 305.542 297.926 305.011 298.604 304.277C299.387 303.341 299.854 302.183 299.94 300.967C300.067 299.917 299.962 298.852 299.633 297.847C299.304 296.841 298.758 295.92 298.034 295.148Z" fill="#DBC498"/>
<path d="M222.808 118.49C209.156 121.962 196.503 128.566 185.855 137.779C180.372 142.391 175.277 147.443 170.621 152.886C166.024 158.224 161.249 164.042 159.413 171C157.275 179.096 159.841 187.566 163.957 194.595C165.133 196.57 168.091 194.595 166.932 192.637C163.369 186.498 161.053 179.15 162.817 172.05C164.474 165.359 169.373 159.772 173.774 154.683C182.151 144.762 192.189 136.369 203.441 129.878C209.869 126.28 216.764 123.586 223.931 121.871C226.14 121.337 224.982 117.974 222.808 118.49Z" fill="#DBC498"/>
<path d="M256.858 121.675C253.829 118.525 249.499 117.28 245.33 116.461C241.16 115.643 236.278 115.002 231.931 116.55C231.484 116.706 231.118 117.033 230.912 117.458C230.707 117.884 230.679 118.373 230.835 118.819C230.991 119.265 231.318 119.631 231.744 119.836C232.17 120.041 232.66 120.069 233.107 119.913C236.866 118.579 240.893 119.219 244.706 119.913C248.381 120.331 251.832 121.886 254.577 124.362C254.941 124.664 255.41 124.809 255.881 124.766C256.352 124.722 256.787 124.494 257.089 124.131C257.392 123.767 257.537 123.299 257.494 122.828C257.45 122.358 257.221 121.924 256.858 121.622V121.675Z" fill="#DBC498"/>
<path d="M165.792 158.9C161.464 155.77 157.512 152.151 154.015 148.117C153.681 147.785 153.229 147.599 152.759 147.599C152.288 147.599 151.836 147.785 151.503 148.117C151.171 148.45 150.984 148.901 150.984 149.371C150.984 149.841 151.171 150.292 151.503 150.626C155.193 154.897 159.38 158.714 163.975 161.996C164.384 162.228 164.868 162.289 165.322 162.166C165.776 162.042 166.163 161.745 166.398 161.338C166.64 160.934 166.713 160.451 166.599 159.994C166.486 159.537 166.196 159.144 165.792 158.9Z" fill="#DBC498"/>
<path d="M150.006 144.665L149.845 144.327C149.739 144.111 149.572 143.932 149.364 143.811C149.194 143.653 148.985 143.543 148.759 143.49C148.536 143.437 148.304 143.437 148.082 143.49C147.847 143.504 147.62 143.578 147.422 143.704L147.048 143.989C146.819 144.208 146.653 144.484 146.567 144.789V145.252C146.572 145.557 146.651 145.857 146.799 146.124L146.959 146.444C147.21 146.855 147.603 147.159 148.064 147.298C148.285 147.361 148.519 147.361 148.741 147.298C148.974 147.294 149.202 147.227 149.4 147.103L149.774 146.818C150.005 146.596 150.167 146.312 150.237 145.999V145.554C150.247 145.242 150.167 144.933 150.006 144.665Z" fill="#DFCBA5"/>
<path d="M469.51 296.287C462.775 300.86 458.695 287.39 457.038 283.458C455.47 279.81 453.884 276.198 452.352 272.55C450.639 268.698 450.106 264.426 450.819 260.272C453.082 245.717 456.04 230.699 452.191 216.125C451.14 212.14 449.394 208.385 448.147 204.453C446.763 200.147 446.218 195.617 446.543 191.107C446.576 190.859 446.545 190.607 446.455 190.374C446.365 190.141 446.217 189.934 446.026 189.773L445.848 189.417C443.318 185.502 445.189 180.929 447.256 177.263C449.648 173.582 451.396 169.52 452.423 165.253C453.014 160.895 453.151 156.488 452.833 152.103C452.655 147.192 453.082 142.387 453.278 137.494C453.505 132.905 452.606 128.329 450.659 124.166C448.642 120.158 446.331 116.304 443.746 112.636C438.797 105.129 433.306 97.9924 427.318 91.283C421.812 85.1263 415.737 77.9554 408.022 74.5034C399.647 70.7666 391.095 73.5425 383.665 78.0621C376.235 82.5818 369.625 88.9343 361.803 93.2404C353.607 97.7423 344.538 100.358 335.7 103.258C314.569 110.376 293.781 118.395 273.339 127.316C271.236 128.241 273.018 131.319 275.121 130.412C292.938 122.63 310.987 115.56 329.268 109.202C337.874 106.23 346.658 103.703 355.103 100.305C363.04 96.8405 370.481 92.3409 377.233 86.9235C383.932 81.8878 391.986 75.5888 400.877 76.2472C409.768 76.9055 416.325 84.6815 421.866 90.6069C427.87 97.0031 433.396 103.831 438.4 111.034C443.478 118.365 449.679 126.497 449.697 135.768C449.697 141.106 449.002 146.355 449.198 151.694C449.376 156.676 449.75 161.801 448.414 166.64C446.205 174.559 437.135 182.548 442.695 191.178C442.762 191.287 442.839 191.388 442.926 191.481C442.666 195.477 443.045 199.49 444.049 203.367C445.118 207.371 446.899 211.125 448.129 215.076C450.387 223.218 451.04 231.721 450.053 240.112C449.661 244.507 449.02 248.866 448.271 253.226C447.31 257.34 446.796 261.546 446.739 265.771C447.244 269.57 448.402 273.254 450.16 276.661L455.398 288.885C456.949 292.444 458.41 296.43 461.688 298.814C463.026 299.875 464.659 300.498 466.364 300.6C468.07 300.702 469.765 300.277 471.22 299.383C473.163 298.102 471.416 295.006 469.51 296.287Z" fill="#DAC39E" fill-opacity="0.25"/>
<path d="M567.364 297.942C564.342 297.235 561.234 296.959 558.134 297.124C554.332 297.633 550.491 297.788 546.66 297.586C543.791 297.195 539.337 296.732 537.377 294.365C535.417 291.999 534.544 288.547 533.012 285.86C531.507 282.826 529.383 280.141 526.775 277.977C523.604 275.664 519.898 276.073 516.245 276.785C514 277.212 514.909 280.664 517.154 280.219C519.399 279.774 522.072 279.241 524.281 280.54C525.761 281.566 527.006 282.894 527.934 284.436C529.879 287.524 531.588 290.754 533.047 294.099C533.69 295.503 534.646 296.743 535.84 297.723C537.035 298.704 538.438 299.399 539.943 299.757C543.65 300.896 547.523 301.408 551.399 301.27C555.363 300.766 559.364 300.617 563.355 300.825C567.154 301.243 570.808 302.515 574.045 304.544C577.106 306.448 579.552 309.193 581.091 312.45C582.63 315.706 583.196 319.337 582.723 322.907C582.348 325.149 585.805 326.074 586.179 323.814C588.282 311.394 579.159 300.754 567.364 297.942Z" fill="#DAC39E" fill-opacity="0.25"/>
<path d="M538.179 252.977C522.392 275.059 497.109 286.358 472.254 295.682C471.999 295.498 471.7 295.385 471.387 295.354C471.074 295.322 470.758 295.374 470.472 295.504C455.862 302.195 440.182 306.056 424.467 309.224C416.681 310.789 408.859 312.213 401.055 313.725C394.142 315.078 385.874 315.683 380.28 320.38C380.084 320.574 379.936 320.81 379.847 321.07C379.759 321.329 379.731 321.607 379.767 321.879C379.804 322.151 379.903 322.411 380.056 322.639C380.21 322.867 380.415 323.056 380.654 323.192C387.05 327.035 394.623 324.971 401.393 323.494C409.18 321.715 416.966 319.935 424.681 317.8C439.688 314.034 454.171 308.428 467.799 301.109C495.274 291.02 523.693 279.33 541.279 254.756C542.615 252.888 539.515 251.126 538.179 252.977ZM425.322 313.921C418.195 315.896 410.872 317.64 403.585 319.259C397.937 320.576 391.113 322.978 385.233 321.252C387.795 320.105 390.497 319.297 393.269 318.85C396.957 318.067 400.645 317.355 404.351 316.644C412.137 315.131 419.959 313.725 427.746 312.106C431.867 311.276 435.965 310.356 440.04 309.348C435.193 311.056 430.276 312.551 425.322 313.921Z" fill="#DAC39E" fill-opacity="0.25"/>
<path d="M544.789 211.641C543.114 210.075 540.584 212.584 542.259 214.15C546.339 217.923 547.39 224.933 547.301 230.165C547.19 236.001 545.403 241.683 542.152 246.535C540.887 248.439 543.934 250.201 545.252 248.315C548.921 242.773 550.873 236.274 550.865 229.631C550.865 223.599 549.439 215.947 544.789 211.641Z" fill="#DAC39E" fill-opacity="0.25"/>
<path d="M525.297 225.449C526.114 217.162 526.054 208.812 525.118 200.538C524.869 198.296 521.288 198.26 521.555 200.538C524.168 223.488 519.908 246.697 509.314 267.23C506.754 269.888 503.923 272.274 500.869 274.347C497.249 276.605 493.454 278.569 489.519 280.219C485.35 282.088 480.984 284.134 476.334 284.347H474.891C475.354 283.671 475.764 282.924 476.245 282.266C477.547 280.515 479.008 278.889 480.61 277.408C482.267 275.824 479.755 273.315 478.08 274.881C475.568 277.265 472.289 280.504 471.078 283.778C469.777 287.337 473.733 287.96 476.423 287.853C480.567 287.497 484.611 286.394 488.361 284.597C492.21 283.012 495.974 281.231 499.639 279.258C502.944 277.38 506.023 275.129 508.815 272.55C509.195 272.731 509.63 272.759 510.028 272.626C510.427 272.493 510.759 272.211 510.953 271.838C511.434 270.949 511.898 270.059 512.361 269.151C514.25 267.265 516.067 265.29 517.849 263.279C522.749 257.834 527.844 252.034 529.911 244.845C531.746 238.261 530.624 230.289 525.297 225.449ZM525.172 247.283C523.042 251.617 520.286 255.616 516.994 259.151C520.761 249.87 523.359 240.157 524.726 230.236C528.058 235.147 527.631 241.909 525.172 247.283Z" fill="#DAC39E" fill-opacity="0.25"/>
<path d="M593.556 189.523C585.761 204.214 576.036 217.798 564.638 229.916C563.07 231.588 565.582 234.115 567.15 232.442C578.775 220.095 588.698 206.254 596.656 191.285C597.725 189.256 594.625 187.495 593.556 189.523Z" fill="#DAC39E" fill-opacity="0.25"/>
<path d="M562.981 234.827C562.913 234.6 562.783 234.397 562.606 234.24C562.275 233.911 561.827 233.726 561.359 233.724C561.125 233.722 560.892 233.767 560.675 233.856C560.458 233.944 560.261 234.075 560.094 234.24L558.045 236.286C557.869 236.443 557.739 236.647 557.671 236.873C557.562 237.081 557.512 237.315 557.528 237.549C557.514 237.778 557.563 238.006 557.671 238.208C557.739 238.434 557.869 238.637 558.045 238.795C558.379 239.126 558.831 239.312 559.301 239.312C559.772 239.312 560.224 239.126 560.557 238.795L562.606 236.749C562.783 236.591 562.913 236.388 562.981 236.161C563.086 235.958 563.141 235.732 563.141 235.503C563.143 235.268 563.088 235.036 562.981 234.827Z" fill="#DBC498"/>
<path d="M623.453 217.94C622.503 212.885 621.102 207.924 619.266 203.118C618.518 200.965 615.061 201.855 615.827 204.025C618.643 212.139 620.977 220.04 620.318 228.795C619.658 237.549 616.754 245.895 613.974 254.098C608.344 270.29 603.106 286.696 596.941 302.693C594.268 309.668 590.634 316.75 583.863 320.487C583.452 320.723 583.151 321.112 583.028 321.569C582.904 322.027 582.967 322.514 583.204 322.925C583.44 323.335 583.83 323.635 584.288 323.759C584.745 323.882 585.234 323.819 585.645 323.583C591.685 320.22 595.64 314.49 598.438 308.316C601.876 300.753 604.282 292.711 607.008 284.881C610.096 275.996 613.19 267.099 616.291 258.19C619.266 249.667 622.367 241.073 623.542 232.087C624.192 227.391 624.162 222.627 623.453 217.94Z" fill="#DBC498"/>
<path d="M462.846 178.473C447.641 201.212 424.38 217.359 397.741 223.67C390.792 225.289 381.473 227.407 375.522 222.158C373.741 220.645 371.282 223.154 373.01 224.666C378.355 229.382 385.607 229.435 392.307 228.385C399.632 227.183 406.802 225.178 413.688 222.407C427.198 217.106 439.558 209.252 450.089 199.275C456.079 193.554 461.399 187.173 465.946 180.253C467.211 178.26 464.111 176.498 462.846 178.473Z" fill="#DBC498"/>
<path d="M487.042 85.66C486.586 85.5406 486.102 85.6065 485.694 85.8433C485.287 86.0801 484.99 86.4685 484.869 86.9234L483.087 98.4717C482.998 98.916 483.082 99.3773 483.322 99.7618C483.562 100.146 483.94 100.425 484.379 100.54C484.818 100.656 485.284 100.6 485.683 100.385C486.082 100.169 486.383 99.8093 486.526 99.3791C487.131 95.5356 487.737 91.6744 488.307 87.8309C488.427 87.3755 488.361 86.8914 488.124 86.4845C487.887 86.0776 487.498 85.7811 487.042 85.66Z" fill="#DBC498"/>
<path d="M480.681 105.109C475.206 132.771 463.823 158.929 447.309 181.801C444.682 185.751 441.589 189.371 438.098 192.584C434.526 195.401 430.534 197.641 426.267 199.221C415.772 203.527 404.886 207.691 393.607 209.364C391.327 209.702 392.253 213.154 394.498 212.816C405.01 211.25 414.97 207.477 424.788 203.598C429.149 202.06 433.331 200.056 437.26 197.62C441.144 194.87 444.551 191.504 447.345 187.655C465.678 163.589 478.285 135.671 484.209 106.016C484.583 103.739 481.163 102.849 480.681 105.109Z" fill="#DBC498"/>
<path d="M458.641 149.131C450.675 160.731 439.438 169.705 426.356 174.915C424.253 175.733 425.126 179.185 427.264 178.349C441.239 172.858 453.247 163.314 461.741 150.946C463.024 149.007 459.924 147.245 458.641 149.131Z" fill="#DBC498"/>
<path d="M443.746 79.2899C443.158 91.5144 442.392 105.518 433.055 114.611C425.019 122.369 412.957 123.721 402.338 124.753C400.075 124.967 400.057 128.544 402.338 128.312C413.955 127.173 426.801 125.608 435.585 117.12C445.706 107.333 446.739 92.493 447.38 79.2899C447.434 77.0479 443.87 77.0479 443.746 79.2899Z" fill="#DBC498"/>
<path d="M361.785 163.847C361.374 163.616 360.888 163.558 360.433 163.685C359.979 163.812 359.594 164.113 359.362 164.523C358.435 165.982 357.473 167.406 356.44 168.776L356.244 169.025L355.887 169.505L355.068 170.52C354.498 171.196 353.945 171.872 353.286 172.512C353.119 172.678 352.987 172.875 352.896 173.092C352.806 173.308 352.759 173.541 352.759 173.776C352.759 174.011 352.806 174.243 352.896 174.46C352.987 174.677 353.119 174.874 353.286 175.039C353.62 175.371 354.071 175.557 354.542 175.557C355.013 175.557 355.465 175.371 355.798 175.039C358.237 172.304 360.442 169.37 362.391 166.267C362.628 165.865 362.697 165.386 362.584 164.933C362.47 164.48 362.184 164.09 361.785 163.847Z" fill="#DBC498"/>
<path d="M403.246 73.489C403.068 70.8555 402.641 67.9907 400.449 66.2113C395.3 62.0475 391.255 69.0049 390.115 73.3289C389.313 76.3894 389.099 79.5568 388.6 82.6707C388.066 86.0871 387.389 89.468 386.605 92.831C384.995 99.5295 383.039 106.14 380.743 112.636C375.398 127.867 369.019 142.743 362.925 157.672C362.141 159.576 364.707 161.231 365.723 159.879C366.127 159.741 366.468 159.463 366.685 159.096C374.026 146.581 380.98 133.852 387.549 120.91C393.607 108.97 400.716 96.4788 402.765 83.08C403.289 79.9115 403.451 76.6939 403.246 73.489ZM399.148 83.3647C396.939 95.8204 390.489 107.262 384.894 118.401C382.079 123.953 379.193 129.433 376.235 134.914C382.525 119.504 388.297 103.863 391.38 87.5818C391.914 84.7882 392.324 81.9945 392.698 79.1831C392.889 76.2039 393.676 73.2934 395.015 70.6242C395.817 69.2718 397.099 67.6526 398.578 69.3074C399.372 70.5531 399.758 72.0145 399.683 73.489C399.94 76.7821 399.778 80.0943 399.202 83.3469L399.148 83.3647Z" fill="#DBC498"/>
<path d="M358.079 43.7197C354.457 69.7716 348.409 95.429 340.012 120.358C339.281 122.529 342.738 123.419 343.469 121.266C351.859 96.33 357.902 70.6666 361.518 44.6094C361.785 42.3852 358.382 41.4599 358.079 43.7197Z" fill="#DBC498"/>
<path d="M341.705 125.625C341.586 125.419 341.427 125.239 341.237 125.095C341.047 124.952 340.831 124.848 340.6 124.789C340.148 124.671 339.669 124.735 339.264 124.967C339.059 125.084 338.88 125.24 338.736 125.426C338.592 125.612 338.487 125.825 338.426 126.052C338.177 127.334 337.927 128.615 337.66 129.896C337.556 130.348 337.62 130.822 337.838 131.23C337.957 131.436 338.116 131.617 338.306 131.76C338.496 131.904 338.712 132.008 338.943 132.067C339.392 132.19 339.872 132.132 340.279 131.907C340.486 131.788 340.666 131.629 340.81 131.44C340.954 131.25 341.058 131.034 341.117 130.803L341.865 126.96C341.974 126.51 341.917 126.036 341.705 125.625Z" fill="#DBC498"/>
<path d="M342.631 72.7594C338.464 89.6376 332.046 105.88 323.549 121.052C323.312 121.463 323.249 121.95 323.373 122.407C323.496 122.865 323.797 123.254 324.208 123.49C324.619 123.726 325.107 123.789 325.565 123.666C326.023 123.542 326.413 123.242 326.649 122.832C335.298 107.384 341.836 90.8487 346.088 73.6669C346.208 73.2091 346.142 72.7223 345.903 72.3135C345.664 71.9047 345.272 71.6074 344.814 71.4871C344.587 71.4275 344.35 71.4132 344.118 71.4449C343.885 71.4765 343.661 71.5536 343.459 71.6718C343.049 71.9104 342.752 72.3016 342.631 72.7594Z" fill="#DBC498"/>
<path d="M450.124 42.9902C448.931 41.0328 445.83 42.7766 447.024 44.7696C451.152 51.6245 453.407 59.4414 453.563 67.4391C453.563 67.911 453.751 68.3636 454.085 68.6973C454.419 69.031 454.872 69.2185 455.345 69.2185C455.817 69.2185 456.271 69.031 456.605 68.6973C456.939 68.3636 457.127 67.911 457.127 67.4391C456.963 58.8197 454.55 50.3922 450.124 42.9902Z" fill="#DBC498"/>
<path d="M445.225 68.3287C444.739 67.1453 444.369 65.9177 444.12 64.6631C444.057 64.4344 443.949 64.2205 443.802 64.0341C443.655 63.8477 443.472 63.6925 443.265 63.5777C442.96 63.4062 442.612 63.3278 442.264 63.3523C441.915 63.3768 441.582 63.5031 441.304 63.7155C441.027 63.9279 440.819 64.2169 440.705 64.5468C440.591 64.8766 440.576 65.2327 440.663 65.5706C440.996 67.1226 441.486 68.6368 442.124 70.0903C442.239 70.2978 442.395 70.4803 442.581 70.6269C442.768 70.7736 442.982 70.8816 443.211 70.9444C443.663 71.0622 444.143 70.9983 444.548 70.7665C444.754 70.6478 444.934 70.489 445.078 70.2995C445.222 70.11 445.326 69.8937 445.385 69.6632C445.394 69.5151 445.394 69.3665 445.385 69.2184C445.402 68.9133 445.347 68.6085 445.225 68.3287Z" fill="#DBC498"/>
</g>
<defs>
<clipPath id="clip0_14_689">
<rect width="731" height="347" fill="white"/>
</clipPath>
</defs>
</svg>
