<svg width="201" height="225" viewBox="0 0 201 225" fill="none" xmlns="http://www.w3.org/2000/svg">
<path d="M129.912 25.1724C129.912 52.6606 72.0471 67.034 72.0471 108.279C72.0471 122.023 78.4294 136.397 84.8529 136.397H174.8C181.229 136.397 187.694 122.023 187.694 108.279C187.694 67.0277 129.912 52.6606 129.912 25.1724Z" fill="#FD9E20"/>
<path d="M200.5 210.75C200.5 218.345 198.8 224.5 187.647 224.5H72C60.8529 224.5 59.3235 218.345 59.3235 210.75V142.023C59.3235 134.433 60.8529 130.104 72.0059 130.104H187.653C198.8 130.104 200.5 134.433 200.5 142.023V210.75Z" fill="#EFEFEF"/>
<path d="M129.912 211.913C129.912 215.252 128.672 218.453 126.466 220.813C124.26 223.174 121.267 224.5 118.147 224.5H12.2647C9.14451 224.5 6.15211 223.174 3.9458 220.813C1.73949 218.453 0.5 215.252 0.5 211.913V205.62C0.5 202.282 1.73949 199.081 3.9458 196.721C6.15211 194.36 9.14451 193.034 12.2647 193.034H118.147C121.267 193.034 124.26 194.36 126.466 196.721C128.672 199.081 129.912 202.282 129.912 205.62V211.913Z" fill="#EFEFEF"/>
<path d="M147.559 180.448C147.559 161.569 136.406 148.983 129.912 148.983C123.418 148.983 112.265 161.569 112.265 180.448V224.5H147.559V180.448ZM100.5 195.13C100.5 182.544 93.0647 174.155 88.7353 174.155C84.4059 174.155 76.9706 182.544 76.9706 195.13V224.5H100.5V195.13ZM182.853 195.13C182.853 182.544 175.418 174.155 171.088 174.155C166.759 174.155 159.324 182.544 159.324 195.13V224.5H182.853V195.13Z" fill="#FD9D20"/>
<path d="M47.5588 211.914C47.5588 215.252 46.3193 218.453 44.113 220.814C41.9067 223.174 38.9143 224.5 35.7941 224.5H24.0294C20.9092 224.5 17.9168 223.174 15.7105 220.814C13.5042 218.453 12.2647 215.252 12.2647 211.914V48.2932C12.2647 44.9552 13.5042 41.7538 15.7105 39.3934C17.9168 37.0331 20.9092 35.707 24.0294 35.707H35.7941C38.9143 35.707 41.9067 37.0331 44.113 39.3934C46.3193 41.7538 47.5588 44.9552 47.5588 48.2932V211.914Z" fill="#EFEFEF"/>
<path d="M29.8824 0C29.8824 11.5604 13.2235 18.3633 13.2235 35.7133C13.2235 41.4967 15.0588 48.2995 16.9118 48.2995H42.8059C44.6529 48.2995 46.5176 41.4967 46.5176 35.7133C46.5176 18.3633 29.8824 11.5604 29.8824 0Z" fill="#FD9E20"/>
<path d="M53.4412 73.4657C53.4412 75.1348 52.8214 76.7354 51.7183 77.9156C50.6151 79.0958 49.1189 79.7588 47.5588 79.7588H12.2647C10.7046 79.7588 9.2084 79.0958 8.10524 77.9156C7.00209 76.7354 6.38234 75.1348 6.38234 73.4657C6.38234 71.7967 7.00209 70.196 8.10524 69.0158C9.2084 67.8357 10.7046 67.1726 12.2647 67.1726H47.5588C49.1189 67.1726 50.6151 67.8357 51.7183 69.0158C52.8214 70.196 53.4412 71.7967 53.4412 73.4657ZM53.4412 48.2933C53.4412 49.9624 52.8214 51.563 51.7183 52.7432C50.6151 53.9234 49.1189 54.5864 47.5588 54.5864H12.2647C10.7046 54.5864 9.2084 53.9234 8.10524 52.7432C7.00209 51.563 6.38234 49.9624 6.38234 48.2933C6.38234 46.6243 7.00209 45.0236 8.10524 43.8435C9.2084 42.6633 10.7046 42.0002 12.2647 42.0002H47.5588C49.1189 42.0002 50.6151 42.6633 51.7183 43.8435C52.8214 45.0236 53.4412 46.6243 53.4412 48.2933Z" fill="#FD9D20"/>
</svg>
