<svg width="201" height="235" viewBox="0 0 201 235" fill="none" xmlns="http://www.w3.org/2000/svg">
<path d="M200.499 0V183.568L26.3053 205.97L0.5 209.286V25.7132C0.5 18.6141 3.38906 12.1888 8.05798 7.53101C12.7324 2.87875 19.1808 0 26.3053 0H200.499Z" fill="#EFEFEF"/>
<path d="M26.3053 0V205.97L0.5 209.286V25.7132C0.5 18.6141 3.38906 12.1888 8.05798 7.53101C12.7324 2.87875 19.1808 0 26.3053 0Z" fill="#FD9D20"/>
<path d="M36.7934 235H26.3062C19.1817 235 12.7334 232.121 8.05893 227.469C3.39 222.811 0.500946 216.38 0.500946 209.281C0.500946 195.082 12.0572 183.567 26.3062 183.567H181.149H200.5V235H73.7735" fill="#FD9D20"/>
<path d="M181.148 183.567V217.243H15.1535V186.084C18.5281 184.472 22.3126 183.567 26.3053 183.567H181.148Z" fill="#E6E6E6"/>
<path d="M181.149 183.567V192.394H26.3062C22.3135 192.394 18.529 193.297 15.1544 194.91V186.084C18.529 184.472 22.3135 183.567 26.3062 183.567H181.149Z" fill="#CCCCCC"/>
<path d="M180.225 142.348V40.1978C169.085 40.1978 160.055 31.1994 160.055 20.0994H67.6766C67.6766 31.1994 58.646 40.1978 47.5061 40.1978V142.348C58.646 142.348 67.6766 151.346 67.6766 162.446H160.055C160.054 151.346 169.085 142.348 180.225 142.348Z" fill="#FD9D20"/>
<path d="M129.876 53.4722L135.8 65.4333L149.048 67.3509L139.462 76.6614L141.724 89.8081L129.876 83.6013L118.027 89.8081L120.29 76.6614L110.704 67.3509L123.951 65.4333L129.876 53.4722Z" fill="#EFEFEF"/>
<path d="M128.728 108.738C109.244 108.738 93.4478 92.999 93.4478 73.5839C93.4478 62.784 98.3369 53.1233 106.028 46.675C83.6277 49.1953 66.2187 68.1344 66.2187 91.1286C66.2187 115.839 86.3219 135.87 111.121 135.87C134.197 135.87 153.204 118.524 155.733 96.2031C149.262 103.867 139.566 108.738 128.728 108.738Z" fill="#EFEFEF"/>
</svg>
