<svg width="81" height="80" viewBox="0 0 81 80" fill="none" xmlns="http://www.w3.org/2000/svg">
<path fill-rule="evenodd" clip-rule="evenodd" d="M44.1364 65.4545V80H36.8636V65.4545H44.1364ZM61.0704 55.4278L71.3556 65.713L66.213 70.8556L55.9278 60.5704L61.0704 55.4278ZM19.9296 55.4278L25.0722 60.5704L14.787 70.8556L9.64443 65.713L19.9296 55.4278ZM40.5 20.117C51.4811 20.117 60.383 29.0189 60.383 40C60.383 50.9811 51.4811 59.8831 40.5 59.8831C35.2236 59.8931 30.1604 57.8015 26.4294 54.0706C22.6985 50.3396 20.6069 45.2764 20.6169 40C20.6169 29.0189 29.5189 20.117 40.5 20.117ZM40.5 27.3897C33.5355 27.3897 27.8897 33.0355 27.8897 40.0139C27.8833 43.3566 29.2084 46.5643 31.572 48.928C33.9357 51.2916 37.1434 52.6167 40.5 52.6103C47.4645 52.6103 53.1103 46.9645 53.1103 40C53.1103 33.0355 47.4645 27.3897 40.5 27.3897ZM80.5 36.3636V43.6364H65.9545V36.3636H80.5ZM15.0455 36.3636V43.6364H0.5V36.3636H15.0455ZM14.787 9.14443L25.0722 19.4296L19.9296 24.5722L9.64443 14.287L14.787 9.14443ZM66.213 9.14443L71.3556 14.287L61.0704 24.5722L55.9278 19.4296L66.213 9.14443ZM44.1364 0V14.5455H36.8636V0L44.1364 0Z" fill="#238652"/>
</svg>
